<svg xmlns="http://www.w3.org/2000/svg" width="24" height="24" viewBox="0 0 24 24">
<symbol id="arrow" viewBox="0 0 24 24"><path d="M21 12l-18 12v-24z"/></symbol>
<symbol id="audio" viewBox="0 0 24 24"><path d="M1 13h-1v-1h1v1zm22-1h-1v1h1v-1zm-20-1h-1v3h1v-3zm18 0h-1v3h1v-3zm-14 0h-1v3h1v-3zm10-1h-1v5h1v-5zm-12 0h-1v5h1v-5zm14-1h-1v7h1v-7zm-10 0h-1v7h1v-7zm2-2h-1v10h1v-10zm4 0h-1v10h1v-10zm-2-2h-1v14h1v-14z"/></symbol>
<symbol id="calendar" viewBox="0 0 24 24"><path d="M20 20h-4v-4h4v4zm-6-10h-4v4h4v-4zm6 0h-4v4h4v-4zm-12 6h-4v4h4v-4zm6 0h-4v4h4v-4zm-6-6h-4v4h4v-4zm16-8v22h-24v-22h3v1c0 1.103.897 2 2 2s2-.897 2-2v-1h10v1c0 1.103.897 2 2 2s2-.897 2-2v-1h3zm-2 6h-20v14h20v-14zm-2-7c0-.552-.447-1-1-1s-1 .448-1 1v2c0 .552.447 1 1 1s1-.448 1-1v-2zm-14 2c0 .552-.447 1-1 1s-1-.448-1-1v-2c0-.552.447-1 1-1s1 .448 1 1v2z"/></symbol>
<symbol id="default" viewBox="0 0 24 24"><path d="M11.362 2c4.156 0 2.638 6 2.638 6s6-1.65 6 2.457v11.543h-16v-20h7.362zm.827-2h-10.189v24h20v-14.386c0-2.391-6.648-9.614-9.811-9.614z"/></symbol>
<symbol id="folder" viewBox="0 0 24 24"><path d="M11 5c-1.629 0-2.305-1.058-4-3h-7v20h24v-17h-13z"/></symbol>
<symbol id="folder_add" viewBox="0 0 24 24"><path d="M19.5 13c-2.483 0-4.5 2.015-4.5 4.5s2.017 4.5 4.5 4.5 4.5-2.015 4.5-4.5-2.017-4.5-4.5-4.5zm2.5 5h-2v2h-1v-2h-2v-1h2v-2h1v2h2v1zm-7.18 4h-14.82v-20h7c1.695 1.942 2.371 3 4 3h13v7.82c-1.169-1.124-2.754-1.82-4.5-1.82-3.584 0-6.5 2.916-6.5 6.5 0 1.747.695 3.331 1.82 4.5z"/></symbol>
<symbol id="folder_open" viewBox="0 0 24 24"><path d="M0 10v12h24v-12h-24zm0-2v-6h7c1.695 1.942 2.371 3 4 3h13v3h-2v-1h-11c-2.34 0-3.537-1.388-4.916-3h-4.084v4h-2z"/></symbol>
<symbol id="help" viewBox="0 0 24 24"><path d="M12 2c5.514 0 10 4.486 10 10s-4.486 10-10 10-10-4.486-10-10 4.486-10 10-10zm0-2c-6.627 0-12 5.373-12 12s5.373 12 12 12 12-5.373 12-12-5.373-12-12-12zm1.25 17c0 .69-.559 1.25-1.25 1.25-.689 0-1.25-.56-1.25-1.25s.561-1.25 1.25-1.25c.691 0 1.25.56 1.25 1.25zm1.393-9.998c-.608-.616-1.515-.955-2.551-.955-2.18 0-3.59 1.55-3.59 3.95h2.011c0-1.486.829-2.013 1.538-2.013.634 0 1.307.421 1.364 1.226.062.847-.39 1.277-.962 1.821-1.412 1.343-1.438 1.993-1.432 3.468h2.005c-.013-.664.03-1.203.935-2.178.677-.73 1.519-1.638 1.536-3.022.011-.924-.284-1.719-.854-2.297z"/></symbol>
<symbol id="home" viewBox="0 0 24 24"><path d="M12 6.453l9 8.375v9.172h-6v-6h-6v6h-6v-9.172l9-8.375zm12 5.695l-12-11.148-12 11.133 1.361 1.465 10.639-9.868 10.639 9.883 1.361-1.465z"/></symbol>
<symbol id="image_resize" viewBox="0 0 24 24"><path d="M11 3v2h-4v-2h4zm3 6l-2.519 4-2.481-1.96-4 5.96h14l-5-8zm-7.5 1c.828 0 1.5-.671 1.5-1.5 0-.828-.672-1.5-1.5-1.5s-1.5.672-1.5 1.5c0 .829.672 1.5 1.5 1.5zm10.5 9h-4v2h4v-2zm-6 2v-2h-4v2h4zm2-18v2h4v-2h-4zm6 0v2h3v3h2v-5h-5zm-17 2h3v-2h-5v5h2v-3zm20 14h-3v2h5v-5h-2v3zm0-5h2v-4h-2v4zm-20-4h-2v4h2v-4zm3 9h-3v-3h-2v5h5v-2z"/></symbol>
<symbol id="pdf" viewBox="0 0 24 24"><path d="M11.363 2c4.155 0 2.637 6 2.637 6s6-1.65 6 2.457v11.543h-16v-20h7.363zm.826-2h-10.189v24h20v-14.386c0-2.391-6.648-9.614-9.811-9.614zm4.811 13h-2.628v3.686h.907v-1.472h1.49v-.732h-1.49v-.698h1.721v-.784zm-4.9 0h-1.599v3.686h1.599c.537 0 .961-.181 1.262-.535.555-.658.587-2.034-.062-2.692-.298-.3-.712-.459-1.2-.459zm-.692.783h.496c.473 0 .802.173.915.644.064.267.077.679-.021.948-.128.351-.381.528-.754.528h-.637v-2.12zm-2.74-.783h-1.668v3.686h.907v-1.277h.761c.619 0 1.064-.277 1.224-.763.095-.291.095-.597 0-.885-.16-.484-.606-.761-1.224-.761zm-.761.732h.546c.235 0 .467.028.576.228.067.123.067.366 0 .489-.109.199-.341.227-.576.227h-.546v-.944z"/></symbol>
<symbol id="sort" viewBox="0 0 24 24"><path d="M6 22l6-8h-4v-12h-4v12h-4l6 8zm11.694-19.997h2.525l3.781 10.997h-2.421l-.705-2.261h-3.935l-.723 2.261h-2.336l3.814-10.997zm-.147 6.841h2.736l-1.35-4.326-1.386 4.326zm-.951 11.922l3.578-4.526h-3.487v-1.24h5.304v1.173l-3.624 4.593h3.633v1.234h-5.404v-1.234z"/></symbol>
<symbol id="text" viewBox="0 0 24 24"><path d="M11.362 2c4.156 0 2.638 6 2.638 6s6-1.65 6 2.457v11.543h-16v-20h7.362zm.827-2h-10.189v24h20v-14.386c0-2.391-6.648-9.614-9.811-9.614zm4.811 13h-10v-1h10v1zm0 2h-10v1h10v-1zm0 3h-10v1h10v-1z"/></symbol>
<symbol id="up" viewBox="0 0 24 24"><path d="M8 10h-5l9-10 9 10h-5v10h-8v-10zm8 12h-8v2h8v-2z"/></symbol>
<symbol id="upload" viewBox="0 0 24 24"><path d="M9 8h-4l7-8 7 8h-4v9h-6v-9zm12 11v5h-18v-5h18zm-6 2h-1v1h1v-1zm2 0h-1v1h1v-1zm2 0h-1v1h1v-1z"/></symbol>
<symbol id="video" viewBox="0 0 24 24"><path d="M12 2c5.514 0 10 4.486 10 10s-4.486 10-10 10-10-4.486-10-10 4.486-10 10-10zm0-2c-6.627 0-12 5.373-12 12s5.373 12 12 12 12-5.373 12-12-5.373-12-12-12zm-3 17v-10l9 5.146-9 4.854z"/></symbol>
<symbol id="zip" viewBox="0 0 24 24"><path d="M10.999 6h-2.998v-1h2.998v1zm0 1h-2.998v1h2.998v-1zm0-4h-2.998v1h2.998v-1zm0 6h-2.998v1h2.998v-1zm0 2h-2.998v1h2.998v-1zm-1.499 9c-1.624 0-2.818-.922-2.425-2.5l.926-4.5h2.998l.926 4.5c.392 1.576-.799 2.5-2.425 2.5zm1.497-1.94c0-1.341-2.996-1.311-2.996.003 0 1.264 2.996 1.273 2.996-.003zm.365-16.06c4.156 0 2.638 6 2.638 6s6-1.65 6 2.457v11.543h-16v-20h7.362zm.827-2h-10.189v24h20v-14.386c0-2.391-6.648-9.614-9.811-9.614z"/></symbol>
</svg>