<svg width="24" height="24" viewBox="0 0 24 24" xmlns="http://www.w3.org/2000/svg" fill-rule="evenodd" clip-rule="evenodd"><path d="M11.601 1.47c0-.221.179-.4.399-.4.221 0 .4.179.4.4 0 .221-.179.4-.4.4-.22 0-.399-.179-.399-.4m3.267 21.53l-2.287-16h-1.162l-2.286 16h-2.133v-16.518c.7-.103 1.319-.353 1.843-.762.781-.611 1.306-1.571 1.545-2.72h3.224c.239 1.149.764 2.11 1.546 2.72.525.411 1.141.667 1.842.772v16.508h-2.132zm-5.494-20c-.206.825-.597 1.502-1.147 1.932-.347.271-.759.448-1.227.54v-2.472h2.374zm7.626 0v2.464c-.465-.09-.88-.262-1.226-.532-.55-.43-.941-1.107-1.148-1.932h2.374zm0-1h-10v-1h10v1zm-11-2v24h4l2-14 2 14h4v-24h-12z"/></svg>