<svg width="24" height="24" viewBox="0 0 24 24" xmlns="http://www.w3.org/2000/svg" fill-rule="evenodd" clip-rule="evenodd"><path d="M20.774 20.892l-.275-.84 2.114-.506.189.844-2.028.502zm-2.809-8.559l-.974.156v8.506h-10.004v-8.506l-.976-.155-2.198 6.768-2.217-.53 2.948-13.211 4.403-1.755v-1.262c1.237.843 2.666.862 3.157.862 1.127-.015 2.13-.319 2.89-.845v1.244l4.436 1.757 2.964 13.209-2.209.527-2.22-6.765zm-10.978 9.662h10.004v1.006h-10.004v-1.006zm-5.798-1.597l.189-.851 2.125.509-.272.838-2.042-.496zm10.833-19.409c1.209 0 2.012.246 2.501.473-.603.456-1.464.731-2.432.744-1.006.001-1.956-.27-2.62-.736.511-.231 1.332-.476 2.551-.481m8.268 3.638l-4.296-1.701v-1.636c-.35-.367-1.429-1.301-4.009-1.301-2.578.009-3.69.97-4.038 1.327v1.613l-4.264 1.699-3.683 16.51 3.896.945 2.091-6.436v8.353h12.004v-8.383l2.123 6.468 3.878-.959-3.702-16.499z"/></svg>