<svg width="24" height="24" viewBox="0 0 24 24" xmlns="http://www.w3.org/2000/svg" fill-rule="evenodd" clip-rule="evenodd"><path d="M23.998 10c-1.861 4.156-5.118 7.8-8.937 9.999v.001h-6.121c-3.819-2.199-7.077-5.844-8.938-10h-.002v-6h24v6h-.002zm-9.99-2h-4.016c-.087 2.493-.913 4.405-2.609 5.974 1.157 1.583 1.996 3.353 2.386 5.026h4.462c.39-1.673 1.23-3.443 2.386-5.026-1.696-1.569-2.522-3.48-2.609-5.974zm-12.742 2.331c1.028 2.05 3.297 5.695 7.377 8.317-.996-3.382-3.893-7.084-7.377-8.317zm21.468 0c-3.483 1.234-6.38 4.935-7.376 8.317 4.08-2.622 6.348-6.267 7.376-8.317zm.266-2.331h-7.992c.082 2.178.774 3.816 2.226 5.185 1.558-1.867 3.563-3.374 5.766-3.985v-1.2zm-22 0v1.2c2.203.611 4.209 2.117 5.766 3.984 1.452-1.368 2.144-3.006 2.226-5.184h-7.992zm22-1v-2h-22v2h22z"/></svg>