<svg width="24" height="24" viewBox="0 0 24 24" xmlns="http://www.w3.org/2000/svg" fill-rule="evenodd" clip-rule="evenodd"><path d="M8.094 16.19l-.385-.592-2.402 1.536c-.316.203-.737-.005-.768-.382l-.56-7.077c-.032-.398.393-.671.743-.476l6.19 3.478c.329.186.343.653.025.857l-2.386 1.525.374.574c.564-.14 1.239.029 1.631.638l1.083 1.683c.449.694.244 1.627-.449 2.072-.59.38-1.561.348-2.074-.449l-1.082-1.683c-.381-.59-.276-1.249.06-1.704zm1.621.622c-.17-.265-.494-.275-.69-.149-.232.149-.3.459-.15.69l1.082 1.683c.171.265.494.275.691.149.232-.148.3-.459.15-.69l-1.083-1.683zm-1.71-2.59l1.691-1.082-4.646-2.61.42 5.313 1.693-1.082-.318-.487c-.15-.231-.085-.541.146-.691.232-.152.541-.086.692.145l.322.494zm-8.005 8.778h24v-22h-24v22zm18.861-6c.375 1.709.197 3.559-.154 5h4.293v-5h-4.139zm-1.186 5c.648-2.423.863-6.491-2.15-8.121-2.614-1.414-3.078-3.458-3.452-5.1-.44-1.928-.73-3.203-4.388-3.544-2.951-.272-4.711-.534-6.685-1.978v18.743h16.675zm5.325-10h-5v2.853c.231.361.418.746.568 1.147h4.432v-4zm-8.366 0c.896.9 1.487.924 2.366 1.69v-1.69h-2.366zm-2.019-5c.477 1.231.511 2.688 1.258 4h1.127v-4h-2.385zm3.385 4h7v-4h-7v4zm1-9h-8v2.409c1.602.306 2.507.874 3.063 1.591h4.937v-4zm1 4h5v-4h-5v4zm-10-1.738v-2.262h-6.977c2.338 2 4.54 2 6.977 2.262z"/></svg>