<svg width="24" height="24" viewBox="0 0 24 24" xmlns="http://www.w3.org/2000/svg" fill-rule="evenodd" clip-rule="evenodd"><path d="M2.001 9.977c.011-1.215.13-1.443 1.079-1.651 1.166-.256 1.847-.479 1.321-1.422-1.6-2.869-.089-4.404 1.601-4.404 1.723 0 3.207 1.593 1.603 4.404-.299.522-.215.825.111 1.033.207-.171.507-.302.942-.397 1.509-.331 2.391-.621 1.709-1.841-2.068-3.709-.552-5.694 1.63-5.699h.008c2.182.005 3.698 1.99 1.63 5.699-.681 1.22.2 1.51 1.71 1.841.435.095.734.226.941.397.327-.208.41-.511.112-1.033-1.604-2.811-.12-4.404 1.603-4.404 1.689 0 3.2 1.535 1.601 4.404-.527.943.154 1.166 1.32 1.422.949.208 1.069.436 1.079 1.651l-.002 1.023-7.999 8v5l-4-1.325v-3.675l-7.996-8-.003-1.023zm18.584 1.023h-17.167l7.582 7.586v3.367l2 .662v-4.029l7.585-7.586zm-8.362 5.914h-.444v-.443c-.459-.008-.934-.117-1.33-.322l.202-.729c.424.164.988.339 1.43.239.51-.115.614-.64.051-.891-.413-.193-1.676-.358-1.676-1.439 0-.604.461-1.145 1.323-1.264v-.473h.444v.451c.321.009.681.065 1.083.187l-.16.731c-.341-.12-.717-.229-1.084-.207-.66.039-.718.611-.257.85.759.357 1.748.622 1.748 1.573.001.762-.595 1.167-1.33 1.27v.467zm3.461-6.914c.005-1.353.055-1.347-.576-1.485-.065-.015-3.958-.501-2.404-3.284.867-1.554 1.093-2.873.622-3.617-.26-.41-.791-.617-1.325-.617-.533 0-1.065.207-1.324.617-.472.744-.246 2.063.621 3.617 1.555 2.783-2.339 3.269-2.403 3.284-.632.138-.582.132-.576 1.485h7.365zm-8.397-1.14c-.321-.172-.61-.415-.78-.774-.234-.492-.176-1.051.172-1.659.574-1.007.714-1.887.383-2.414-.434-.693-1.69-.676-2.111-.012-.331.521-.192 1.409.381 2.436.341.61.395 1.167.16 1.657-.415.863-1.539 1.061-2.13 1.197-.231.053-.296.068-.304.341l-.002.368h4.209c0-.442-.011-.819.022-1.14zm13.66 1.14l-.003-.368c-.007-.273-.072-.288-.304-.341-.591-.136-1.714-.334-2.13-1.197-.234-.49-.181-1.047.16-1.657.573-1.027.712-1.915.382-2.436-.422-.664-1.678-.681-2.112.012-.331.527-.191 1.407.383 2.414.348.608.406 1.167.172 1.659-.17.359-.458.602-.78.774.034.321.022.698.022 1.14h4.21z"/></svg>