<svg xmlns="http://www.w3.org/2000/svg" width="24" height="24" viewBox="0 0 24 24">
<symbol id="360" viewBox="80 0 360 360"><path d="m138.664062 230.164062c26.601563 0 48.070313-11.78125 48.070313-42.941406v-3.609375c0-15.390625-8.167969-23.75-19.378906-27.929687 9.5-4.371094 14.628906-17.292969 14.628906-31.160156 0-25.652344-18.238281-34.390626-42.371094-34.390626-32.679687 0-43.316406 19.1875-43.316406 34.007813 0 9.121094 1.707031 11.972656 15.386719 11.972656 11.019531 0 13.871094-4.371093 13.871094-10.832031 0-7.410156 4.75-9.6875 14.058593-9.6875 7.792969 0 14.0625 2.660156 14.0625 13.679688 0 15.390624-7.601562 16.339843-14.820312 16.339843-6.460938 0-8.550781 5.699219-8.550781 11.402344 0 5.699219 2.089843 11.398437 8.550781 11.398437 10.449219 0 18.242187 2.46875 18.242187 15.199219v3.609375c0 12.351563-4.5625 17.101563-17.480468 17.101563-8.550782 0-16.910157-2.089844-16.910157-11.019531 0-7.222657-3.042969-9.882813-15.199219-9.882813-10.453124 0-14.0625 2.28125-14.0625 10.832031 0 15.960938 12.539063 35.910156 45.21875 35.910156zm0 0"/><path d="m256.273438 115.972656c8.929687 0 16.53125 3.800782 16.53125 11.019532 0 8.738281 7.21875 10.828124 15.390624 10.828124 9.5 0 13.871094-2.847656 13.871094-11.96875 0-15.769531-12.730468-35.71875-44.839844-35.71875-27.363281 0-48.453124 12.160157-48.453124 44.839844v50.351563c0 32.679687 20.519531 44.839843 46.742187 44.839843 26.21875 0 46.550781-12.160156 46.550781-44.839843v-1.710938c0-30.398437-18.242187-39.898437-39.902344-39.898437-9.117187 0-17.667968 1.707031-23.75 8.355468v-17.097656c0-13.113281 6.652344-19 17.859376-19zm-.949219 50.539063c10.832031 0 17.101562 5.320312 17.101562 19.191406v1.710937c0 13.109376-6.269531 18.808594-16.910156 18.808594s-17.101563-5.699218-17.101563-18.808594v-3.421874c0-12.539063 6.652344-17.480469 16.910157-17.480469zm0 0"/><path d="m371.796875 169.933594c5.886719 0 9.5-3.992188 9.5-9.691406 0-5.890626-3.613281-9.5-9.5-9.5-6.082031 0-9.691406 3.609374-9.691406 9.5 0 5.699218 3.609375 9.691406 9.691406 9.691406zm0 0"/><path d="m371.605469 230.164062c26.21875 0 46.738281-12.160156 46.738281-44.84375v-50.347656c0-32.683594-20.519531-44.839844-46.738281-44.839844-26.222657 0-46.550781 12.15625-46.550781 44.839844v50.347656c0 32.683594 20.328124 44.84375 46.550781 44.84375zm-16.910157-95.191406c0-13.109375 6.269532-19 16.910157-19s17.097656 5.890625 17.097656 19v50.351563c0 13.109375-6.457031 19-17.097656 19s-16.910157-5.890625-16.910157-19zm0 0"/><path d="m454.351562 90c24.8125 0 45-20.1875 45-45s-20.1875-45-45-45c-24.816406 0-45 20.1875-45 45s20.183594 45 45 45zm0-60c8.269532 0 15 6.730469 15 15s-6.730468 15-15 15c-8.273437 0-15-6.730469-15-15s6.726563-15 15-15zm0 0"/><path d="m466.847656 146.503906c-6.824218-4.691406-16.164062-2.96875-20.859375 3.859375-4.695312 6.824219-2.96875 16.164063 3.855469 20.859375 14.667969 10.089844 32.15625 26.269532 32.15625 46.039063 0 17.9375-14.941406 36.519531-42.078125 52.332031-29.671875 17.285156-72.117187 30.132812-119.515625 36.167969-8.21875 1.046875-14.03125 8.558593-12.984375 16.777343.964844 7.574219 7.421875 13.105469 14.859375 13.105469.632812 0 1.273438-.039062 1.917969-.121093 52.039062-6.628907 97.277343-20.464844 130.824219-40.011719 37.273437-21.714844 56.976562-48.773438 56.976562-78.25 0-25.96875-15.613281-50.4375-45.152344-70.757813zm0 0"/><path d="m226.605469 274.15625c-5.855469-5.859375-15.355469-5.859375-21.210938 0-5.859375 5.855469-5.859375 15.355469 0 21.210938l13.0625 13.066406c-47.960937-3.417969-92.023437-13.363282-126.761719-28.855469-39.207031-17.492187-61.695312-40.203125-61.695312-62.316406 0-17.652344 14.554688-36 40.980469-51.664063 7.128906-4.226562 9.480469-13.425781 5.257812-20.550781-4.226562-7.128906-13.425781-9.480469-20.554687-5.257813-46.023438 27.28125-55.683594 57.1875-55.683594 77.472657 0 34.992187 28.226562 66.851562 79.476562 89.714843 38.949219 17.371094 88.226563 28.324219 141.414063 31.679688l-15.496094 15.5c-5.859375 5.855469-5.859375 15.355469 0 21.210938 2.929688 2.929687 6.765625 4.394531 10.605469 4.394531s7.679688-1.464844 10.605469-4.394531l40-40c5.859375-5.855469 5.859375-15.351563 0-21.210938zm0 0"/></symbol>
<symbol id="add" viewBox="0 0 24 24"><path d="M12 2c5.514 0 10 4.486 10 10s-4.486 10-10 10-10-4.486-10-10 4.486-10 10-10zm0-2c-6.627 0-12 5.373-12 12s5.373 12 12 12 12-5.373 12-12-5.373-12-12-12zm6 13h-5v5h-2v-5h-5v-2h5v-5h2v5h5v2z"/></symbol>
<symbol id="add_2" viewBox="0 0 24 24"><path d="M24 10h-10v-10h-4v10h-10v4h10v10h4v-10h10z"/></symbol>
<symbol id="angel_down" viewBox="0 0 24 24"><path d="M23.245 4l-11.245 14.374-11.219-14.374-.781.619 12 15.381 12-15.391-.755-.609z"/></symbol>
<symbol id="angel_top" viewBox="0 0 24 24"><path d="M23.245 20l-11.245-14.374-11.219 14.374-.781-.619 12-15.381 12 15.391-.755.609z"/></symbol>
<symbol id="arrow-left" viewBox="0 0 24 24"><path d="M16.67 0l2.83 2.829-9.339 9.175 9.339 9.167-2.83 2.829-12.17-11.996z"/></symbol>
<symbol id="arrow_r" viewBox="0 0 24 24"><path d="M4 .755l14.374 11.245-14.374 11.219.619.781 15.381-12-15.391-12-.609.755z"/></symbol>
<symbol id="button" viewBox="0 0 512 512"><path d="M407,76H105C47.109,76,0,123.109,0,181v150c0,57.891,47.109,105,105,105h302c57.891,0,105-47.109,105-105V181C512,123.109,464.891,76,407,76z"/></symbol>
<symbol id="breadcrumbs" viewBox="0 0 24 24"><path d="M10.024 4h6.015l7.961 8-7.961 8h-6.015l7.961-8-7.961-8zm-10.024 16h6.015l7.961-8-7.961-8h-6.015l7.961 8-7.961 8z"/></symbol>
<symbol id="case" viewBox="0 0 520 257"><g transform="translate(0.000000,257.000000) scale(0.100000,-0.100000)"
fill="#000000" stroke="none">
<path d="M0 1670 l0 -900 1200 0 1200 0 0 900 0 900 -1200 0 -1200 0 0 -900z
m2200 0 l0 -700 -1000 0 -1000 0 0 700 0 700 1000 0 1000 0 0 -700z"/>
<path d="M566 2151 c-46 -31 -66 -69 -66 -131 0 -95 55 -150 150 -150 95 0
150 55 150 150 0 95 -55 150 -150 150 -37 0 -64 -6 -84 -19z"/>
<path d="M1269 1775 c-80 -128 -126 -192 -133 -187 -6 5 -60 48 -120 95 -59
48 -111 87 -115 87 -7 0 -401 -585 -401 -595 0 -3 315 -5 700 -5 385 0 700 3
700 6 0 12 -493 794 -500 794 -5 0 -63 -88 -131 -195z"/>
<path d="M2800 2270 l0 -100 1200 0 1200 0 0 100 0 100 -1200 0 -1200 0 0
-100z"/>
<path d="M2800 1600 l0 -100 1200 0 1200 0 0 100 0 100 -1200 0 -1200 0 0
-100z"/>
<path d="M2800 940 l0 -100 1200 0 1200 0 0 100 0 100 -1200 0 -1200 0 0 -100z"/>
<path d="M0 285 l0 -285 350 0 350 0 0 285 0 285 -350 0 -350 0 0 -285z"/>
<path d="M850 285 l0 -285 350 0 350 0 0 285 0 285 -350 0 -350 0 0 -285z"/>
<path d="M1700 285 l0 -285 350 0 350 0 0 285 0 285 -350 0 -350 0 0 -285z"/>
<path d="M2800 270 l0 -100 1200 0 1200 0 0 100 0 100 -1200 0 -1200 0 0 -100z"/>
</g></symbol>
<symbol id="catalog" viewBox="0 0 24 24"><path d="M4 4v20h20v-20h-20zm18 18h-16v-13h16v13zm-3-3h-10v-1h10v1zm0-3h-10v-1h10v1zm0-3h-10v-1h10v1zm3-10h-19v19h-1v-20h20v1zm-2-2h-19v19h-1v-20h20v1z"/></symbol>
<symbol id="close" viewBox="0 0 24 24"><path d="M12 11.293l10.293-10.293.707.707-10.293 10.293 10.293 10.293-.707.707-10.293-10.293-10.293 10.293-.707-.707 10.293-10.293-10.293-10.293.707-.707 10.293 10.293z"/></symbol>
<symbol id="code" viewBox="0 0 24 24"><path d="M24 10.935v2.131l-8 3.947v-2.23l5.64-2.783-5.64-2.79v-2.223l8 3.948zm-16 3.848l-5.64-2.783 5.64-2.79v-2.223l-8 3.948v2.131l8 3.947v-2.23zm7.047-10.783h-2.078l-4.011 16h2.073l4.016-16z"/></symbol>
<symbol id="code_2" viewBox="0 0 24 24"><path d="M23 10.826v2.349c-1.562 0-3 1.312-3 2.857 0 2.181 1.281 5.968-6 5.968v-2.002c4.917 0 3.966-1.6 3.966-3.967 0-2.094 1.211-3.5 2.278-4.031-1.067-.531-2.278-1.438-2.278-3.312 0-2.372.94-4.692-3.966-4.686v-2.002c7.285 0 6 4.506 6 6.688 0 1.544 1.438 2.138 3 2.138zm-19-2.138c0-2.182-1.285-6.688 6-6.688v2.002c-4.906-.007-3.966 2.313-3.966 4.686 0 1.875-1.211 2.781-2.278 3.312 1.067.531 2.278 1.938 2.278 4.031 0 2.367-.951 3.967 3.966 3.967v2.002c-7.281 0-6-3.787-6-5.969 0-1.545-1.438-2.857-3-2.857v-2.349c1.562.001 3-.593 3-2.137z"/></symbol>
<symbol id="copy" viewBox="0 0 24 24"><path d="M18 6v-6h-18v18h6v6h18v-18h-6zm-12 10h-4v-14h14v4h-10v10zm16 6h-14v-14h14v14z"/></symbol>
<symbol id="cursor_24" viewBox="0 0 24 24"><path d="M24 12l-6-5v4h-5v-5h4l-5-6-5 6h4v5h-5v-4l-6 5 6 5v-4h5v5h-4l5 6 5-6h-4v-5h5v4z"/></symbol>
<symbol id="delete" viewBox="0 0 24 24"><path d="M23 20.168l-8.185-8.187 8.185-8.174-2.832-2.807-8.182 8.179-8.176-8.179-2.81 2.81 8.186 8.196-8.186 8.184 2.81 2.81 8.203-8.192 8.18 8.192z"/></symbol>
<symbol id="delete_3" viewBox="0 0 24 24"><path d="M12 2c5.514 0 10 4.486 10 10s-4.486 10-10 10-10-4.486-10-10 4.486-10 10-10zm0-2c-6.627 0-12 5.373-12 12s5.373 12 12 12 12-5.373 12-12-5.373-12-12-12zm5 15.538l-3.592-3.548 3.546-3.587-1.416-1.403-3.545 3.589-3.588-3.543-1.405 1.405 3.593 3.552-3.547 3.592 1.405 1.405 3.555-3.596 3.591 3.55 1.403-1.416z"/></symbol>
<symbol id="down" viewBox="0 0 24 24"><path d="M12 21l-12-18h24z"/></symbol>
<symbol id="edit" viewBox="0 0 24 24"><path d="M8.424 12.282l4.402 4.399-5.826 1.319 1.424-5.718zm15.576-6.748l-9.689 9.804-4.536-4.536 9.689-9.802 4.536 4.534zm-6 8.916v6.55h-16v-12h6.743l1.978-2h-10.721v16h20v-10.573l-2 2.023z"/></symbol>
<symbol id="edit_2" viewBox="0 0 24 24"><path d="M7 22v-2h6v2h-6zm7.311-7.662l9.689-9.804-4.536-4.534-9.69 9.802 4.537 4.536zm-7.311-6.338h1.743l1.978-2h-3.721v2zm11 8h2v-4.573l-2 2.023v2.55zm-9.576-4.718l-1.424 5.718 5.826-1.318-4.402-4.4zm-6.424-1.282v-2h3v-2h-5v4h2zm16 8v2h-3v2h5v-4h-2zm-13 2h-3v-2h-2v4h5v-2zm-5-4h2v-4h-2v4z"/></symbol>
<symbol id="email" viewBox="0 0 24 24"><path d="M0 3v18h24v-18h-24zm21.518 2l-9.518 7.713-9.518-7.713h19.036zm-19.518 14v-11.817l10 8.104 10-8.104v11.817h-20z"/></symbol>
<symbol id="form" viewBox="0 0 24 24"><path d="M2 16v-8h12v-2h-14v12h14v-2h-12zm18-10v2h2v8h-2v2h4v-12h-4zm-2 12.301c0 1.699 1.359 1.621 2 1.699v1h-6v-1c.641-.078 2 0 2-1.699v-12.602c0-1.699-1.359-1.621-2-1.699v-1h6v1c-.641.078-2 0-2 1.699v12.602z"/></symbol>
<symbol id="fullscreen" viewBox="0 0 24 24"><path d="M11 4h-2l3-3 3 3h-2v2h-2v-2zm2 16h2l-3 3-3-3h2v-2h2v2zm-10-7v2l-3-3 3-3v2h2v2h-2zm18-2v-2l3 3-3 3v-2h-2v-2h2zm-4-3h-10v8h10v-8z"/></symbol>
<symbol id="fullscreen_23" viewBox="0 0 24 24"><path d="M24 9h-2v-5h-7v-2h9v7zm-9 13v-2h7v-5h2v7h-9zm-15-7h2v5h7v2h-9v-7zm9-13v2h-7v5h-2v-7h9z"/></symbol>
<symbol id="gear" viewBox="0 0 24 24"><path d="M24 14.187v-4.374c-2.148-.766-2.726-.802-3.027-1.529-.303-.729.083-1.169 1.059-3.223l-3.093-3.093c-2.026.963-2.488 1.364-3.224 1.059-.727-.302-.768-.889-1.527-3.027h-4.375c-.764 2.144-.8 2.725-1.529 3.027-.752.313-1.203-.1-3.223-1.059l-3.093 3.093c.977 2.055 1.362 2.493 1.059 3.224-.302.727-.881.764-3.027 1.528v4.375c2.139.76 2.725.8 3.027 1.528.304.734-.081 1.167-1.059 3.223l3.093 3.093c1.999-.95 2.47-1.373 3.223-1.059.728.302.764.88 1.529 3.027h4.374c.758-2.131.799-2.723 1.537-3.031.745-.308 1.186.099 3.215 1.062l3.093-3.093c-.975-2.05-1.362-2.492-1.059-3.223.3-.726.88-.763 3.027-1.528zm-4.875.764c-.577 1.394-.068 2.458.488 3.578l-1.084 1.084c-1.093-.543-2.161-1.076-3.573-.49-1.396.581-1.79 1.693-2.188 2.877h-1.534c-.398-1.185-.791-2.297-2.183-2.875-1.419-.588-2.507-.045-3.579.488l-1.083-1.084c.557-1.118 1.066-2.18.487-3.58-.579-1.391-1.691-1.784-2.876-2.182v-1.533c1.185-.398 2.297-.791 2.875-2.184.578-1.394.068-2.459-.488-3.579l1.084-1.084c1.082.538 2.162 1.077 3.58.488 1.392-.577 1.785-1.69 2.183-2.875h1.534c.398 1.185.792 2.297 2.184 2.875 1.419.588 2.506.045 3.579-.488l1.084 1.084c-.556 1.121-1.065 2.187-.488 3.58.577 1.391 1.689 1.784 2.875 2.183v1.534c-1.188.398-2.302.791-2.877 2.183zm-7.125-5.951c1.654 0 3 1.346 3 3s-1.346 3-3 3-3-1.346-3-3 1.346-3 3-3zm0-2c-2.762 0-5 2.238-5 5s2.238 5 5 5 5-2.238 5-5-2.238-5-5-5z"/></symbol>
<symbol id="help" viewBox="0 0 24 24"><path d="M12 2c5.514 0 10 4.486 10 10s-4.486 10-10 10-10-4.486-10-10 4.486-10 10-10zm0-2c-6.627 0-12 5.373-12 12s5.373 12 12 12 12-5.373 12-12-5.373-12-12-12zm1.25 17c0 .69-.559 1.25-1.25 1.25-.689 0-1.25-.56-1.25-1.25s.561-1.25 1.25-1.25c.691 0 1.25.56 1.25 1.25zm1.393-9.998c-.608-.616-1.515-.955-2.551-.955-2.18 0-3.59 1.55-3.59 3.95h2.011c0-1.486.829-2.013 1.538-2.013.634 0 1.307.421 1.364 1.226.062.847-.39 1.277-.962 1.821-1.412 1.343-1.438 1.993-1.432 3.468h2.005c-.013-.664.03-1.203.935-2.178.677-.73 1.519-1.638 1.536-3.022.011-.924-.284-1.719-.854-2.297z"/></symbol>
<symbol id="home" viewBox="0 0 24 24"><path d="M20 7.093v-5.093h-3v2.093l3 3zm4 5.907l-12-12-12 12h3v10h7v-5h4v5h7v-10h3zm-5 8h-3v-5h-8v5h-3v-10.26l7-6.912 7 6.99v10.182z"/></symbol>
<symbol id="icon" viewBox="0 0 24 24"><path d="M12 2c5.514 0 10 4.486 10 10s-4.486 10-10 10-10-4.486-10-10 4.486-10 10-10zm0-2c-6.627 0-12 5.373-12 12s5.373 12 12 12 12-5.373 12-12-5.373-12-12-12zm-1.834 9.686l-4.166.575 3.032 2.914-.74 4.139 3.708-1.982 3.708 1.983-.74-4.139 3.032-2.915-4.166-.575-1.834-3.784-1.834 3.784z"/></symbol>
<symbol id="image" viewBox="0 0 24 24"><path d="M5 8.5c0-.828.672-1.5 1.5-1.5s1.5.672 1.5 1.5c0 .829-.672 1.5-1.5 1.5s-1.5-.671-1.5-1.5zm9 .5l-2.519 4-2.481-1.96-4 5.96h14l-5-8zm8-4v14h-20v-14h20zm2-2h-24v18h24v-18z"/></symbol>
<symbol id="image_2" viewBox="0 0 24 24"><path d="M11 3v2h-4v-2h4zm3 6l-2.519 4-2.481-1.96-4 5.96h14l-5-8zm-7.5 1c.828 0 1.5-.671 1.5-1.5 0-.828-.672-1.5-1.5-1.5s-1.5.672-1.5 1.5c0 .829.672 1.5 1.5 1.5zm10.5 9h-4v2h4v-2zm-6 2v-2h-4v2h4zm2-18v2h4v-2h-4zm6 0v2h3v3h2v-5h-5zm-17 2h3v-2h-5v5h2v-3zm20 14h-3v2h5v-5h-2v3zm0-5h2v-4h-2v4zm-20-4h-2v4h2v-4zm3 9h-3v-3h-2v5h5v-2z"/></symbol>
<symbol id="images" viewBox="0 0 24 24"><path d="M9 12c0-.552.448-1 1.001-1s.999.448.999 1-.446 1-.999 1-1.001-.448-1.001-1zm6.2 0l-1.7 2.6-1.3-1.6-3.2 4h10l-3.8-5zm8.8-5v14h-20v-3h-4v-15h21v4h3zm-20 9v-9h15v-2h-17v11h2zm18-7h-16v10h16v-10z"/></symbol>
<symbol id="images_2" viewBox="0 0 24 24"><path d="M1.859 6l-.489-2h21.256l-.491 2h-20.276zm1.581-4l-.439-2h17.994l-.439 2h-17.116zm20.56 16h-24l2 6h20l2-6zm-20.896-2l-.814-6h19.411l-.839 6h2.02l1.118-8h-24l1.085 8h2.019zm2.784-3.995c-.049-.555.419-1.005 1.043-1.005.625 0 1.155.449 1.185 1.004.03.555-.438 1.005-1.044 1.005-.605 0-1.136-.449-1.184-1.004zm7.575-.224l-1.824 2.68-1.813-1.312-2.826 2.851h10l-3.537-4.219z"/></symbol>
<symbol id="link" viewBox="0 0 24 24"><path d="M6.188 8.719c.439-.439.926-.801 1.444-1.087 2.887-1.591 6.589-.745 8.445 2.069l-2.246 2.245c-.644-1.469-2.243-2.305-3.834-1.949-.599.134-1.168.433-1.633.898l-4.304 4.306c-1.307 1.307-1.307 3.433 0 4.74 1.307 1.307 3.433 1.307 4.74 0l1.327-1.327c1.207.479 2.501.67 3.779.575l-2.929 2.929c-2.511 2.511-6.582 2.511-9.093 0s-2.511-6.582 0-9.093l4.304-4.306zm6.836-6.836l-2.929 2.929c1.277-.096 2.572.096 3.779.574l1.326-1.326c1.307-1.307 3.433-1.307 4.74 0 1.307 1.307 1.307 3.433 0 4.74l-4.305 4.305c-1.311 1.311-3.44 1.3-4.74 0-.303-.303-.564-.68-.727-1.051l-2.246 2.245c.236.358.481.667.796.982.812.812 1.846 1.417 3.036 1.704 1.542.371 3.194.166 4.613-.617.518-.286 1.005-.648 1.444-1.087l4.304-4.305c2.512-2.511 2.512-6.582.001-9.093-2.511-2.51-6.581-2.51-9.092 0z"/></symbol>
<symbol id="map" viewBox="0 0 24 24"><path d="M12 0c-3.148 0-6 2.553-6 5.702 0 4.682 4.783 5.177 6 12.298 1.217-7.121 6-7.616 6-12.298 0-3.149-2.851-5.702-6-5.702zm0 8c-1.105 0-2-.895-2-2s.895-2 2-2 2 .895 2 2-.895 2-2 2zm12 16l-6.707-2.427-5.293 2.427-5.581-2.427-6.419 2.427 4-9 3.96-1.584c.38.516.741 1.08 1.061 1.729l-3.523 1.41-1.725 3.88 2.672-1.01 1.506-2.687-.635 3.044 4.189 1.789.495-2.021.465 2.024 4.15-1.89-.618-3.033 1.572 2.896 2.732.989-1.739-3.978-3.581-1.415c.319-.65.681-1.215 1.062-1.731l4.021 1.588 3.936 9z"/></symbol>
<symbol id="menu" viewBox="0 0 24 24"><path d="M16 12c0-1.656 1.344-3 3-3s3 1.344 3 3-1.344 3-3 3-3-1.344-3-3zm1 0c0-1.104.896-2 2-2s2 .896 2 2-.896 2-2 2-2-.896-2-2zm-8 0c0-1.656 1.344-3 3-3s3 1.344 3 3-1.344 3-3 3-3-1.344-3-3zm1 0c0-1.104.896-2 2-2s2 .896 2 2-.896 2-2 2-2-.896-2-2zm-8 0c0-1.656 1.344-3 3-3s3 1.344 3 3-1.344 3-3 3-3-1.344-3-3zm1 0c0-1.104.896-2 2-2s2 .896 2 2-.896 2-2 2-2-.896-2-2z"/></symbol>
<symbol id="menu_list" viewBox="0 0 24 24"><path d="M13 6h-13v-4h13v4zm0 4h-13v4h13v-4zm0 8h-13v4h13v-4zm3-8l4 5.075 4-5.075h-8z"/></symbol>
<symbol id="pages" viewBox="0 0 24 24"><path d="M6 22v-16h16v7.543c0 4.107-6 2.457-6 2.457s1.518 6-2.638 6h-7.362zm18-7.614v-10.386h-20v20h10.189c3.163 0 9.811-7.223 9.811-9.614zm-10 1.614h-5v-1h5v1zm5-4h-10v1h10v-1zm0-3h-10v1h10v-1zm3-6h-19v19h-1v-20h20v1zm-2-2h-19v19h-1v-20h20v1z"/></symbol>
<symbol id="panorama" viewBox="0 -23 512 512"><path d="m100.683594 459.625 19.316406 5.808594v-149.203125c39.316406-10.542969 86.449219-16.230469 136-16.230469s96.683594 5.6875 136 16.230469v149.203125l19.316406-5.808594c64.925782-19.515625 100.683594-49.570312 100.683594-84.625v-270c0-30.734375-28.609375-58.324219-80.554688-77.695312-47.226562-17.609376-109.53125-27.304688-175.445312-27.304688s-128.21875 9.695312-175.445312 27.304688c-51.945313 19.371093-80.554688 46.960937-80.554688 77.695312v270c0 35.054688 35.757812 65.109375 100.683594 84.625zm-10.683594-35.269531c-37.023438-14.082031-60-32.628907-60-49.355469 0-16.648438 22.402344-35 60-49.195312zm0-130.398438c-20.847656 7.027344-42.726562 16.71875-60 30.039063v-167.65625c14.839844 11.402344 34.976562 21.492187 60 29.890625zm332 130.398438v-98.550781c37.597656 14.195312 60 32.546874 60 49.195312 0 16.726562-22.976562 35.273438-60 49.355469zm0-130.398438v-107.726562c25.023438-8.398438 45.160156-18.488281 60-29.890625v167.65625c-17.265625-13.316406-39.144531-23.007813-60-30.039063zm-330.964844-238.542969c43.957032-16.386718 102.542969-25.414062 164.964844-25.414062s121.007812 9.027344 164.964844 25.414062c38.21875 14.25 61.035156 32.785157 61.035156 49.585938 0 35.84375-89.050781 58.6875-90 59.105469v121.160156c-40.230469-9.933594-87.125-15.265625-136-15.265625s-95.769531 5.332031-136 15.265625v-121.160156c-.507812-.222657-90-23.449219-90-59.105469 0-16.800781 22.816406-35.335938 61.035156-49.585938zm0 0"/><path d="m303.230469 111.554688-30.609375 30.609374-47.664063-63.554687-102.210937 161.390625h267.542968zm-76.1875 19.835937 42.335937 56.445313 29.390625-29.390626 34.941407 51.554688h-156.457032zm0 0"/></symbol>
<symbol id="phone" viewBox="0 0 24 24"><path d="M20 22.621l-3.521-6.795c-.008.004-1.974.97-2.064 1.011-2.24 1.086-6.799-7.82-4.609-8.994l2.083-1.026-3.493-6.817-2.106 1.039c-7.202 3.755 4.233 25.982 11.6 22.615.121-.055 2.102-1.029 2.11-1.033z"/></symbol>
<symbol id="repeat" viewBox="0 0 24 24"><path d="M11 11h-11v-11h11v11zm13 0h-11v-11h11v11zm-13 13h-11v-11h11v11zm13 0h-11v-11h11v11z"/></symbol>
<symbol id="save" viewBox="0 0 24 24"><path d="M9 3h6v2h-6v-2zm3 15l7-8h-4v-4h-6v4h-4l7 8zm3-16v-2h-6v2h6zm3.213-.246l-1.213 1.599c2.984 1.732 5 4.955 5 8.647 0 5.514-4.486 10-10 10s-10-4.486-10-10c0-3.692 2.016-6.915 5-8.647l-1.213-1.599c-3.465 2.103-5.787 5.897-5.787 10.246 0 6.627 5.373 12 12 12s12-5.373 12-12c0-4.349-2.322-8.143-5.787-10.246z"/></symbol>
<symbol id="target" viewBox="0 0 24 24"><path d="M6 12c0 2.206 1.794 4 4 4 1.761 0 3.242-1.151 3.775-2.734l2.224-1.291.001.025c0 3.314-2.686 6-6 6s-6-2.686-6-6 2.686-6 6-6c1.084 0 2.098.292 2.975.794l-2.21 1.283c-.248-.048-.503-.077-.765-.077-2.206 0-4 1.794-4 4zm4-2c-1.105 0-2 .896-2 2s.895 2 2 2 2-.896 2-2l-.002-.015 3.36-1.95c.976-.565 2.704-.336 3.711.159l4.931-2.863-3.158-1.569.169-3.632-4.945 2.87c-.07 1.121-.734 2.736-1.705 3.301l-3.383 1.964c-.29-.163-.621-.265-.978-.265zm7.995 1.911l.005.089c0 4.411-3.589 8-8 8s-8-3.589-8-8 3.589-8 8-8c1.475 0 2.853.408 4.041 1.107.334-.586.428-1.544.146-2.18-1.275-.589-2.69-.927-4.187-.927-5.523 0-10 4.477-10 10s4.477 10 10 10c5.233 0 9.521-4.021 9.957-9.142-.301-.483-1.066-1.061-1.962-.947z"/></symbol>
<symbol id="text" viewBox="0 0 24 24"><path d="M22 0h-20v6h1.999c0-1.174.397-3 2.001-3h4v16.874c0 1.174-.825 2.126-2 2.126h-1v2h9.999v-2h-.999c-1.174 0-2-.952-2-2.126v-16.874h4c1.649 0 2.02 1.826 2.02 3h1.98v-6z"/></symbol>
<symbol id="up" viewBox="0 0 24 24"><path d="M24 22h-24l12-20z"/></symbol>
<symbol id="video" viewBox="0 0 24 24"><path d="M19.615 3.184c-3.604-.246-11.631-.245-15.23 0-3.897.266-4.356 2.62-4.385 8.816.029 6.185.484 8.549 4.385 8.816 3.6.245 11.626.246 15.23 0 3.897-.266 4.356-2.62 4.385-8.816-.029-6.185-.484-8.549-4.385-8.816zm-10.615 12.816v-8l8 3.993-8 4.007z"/></symbol>
<symbol id="youtube" viewBox="0 0 24 24"><path d="M19.615 3.184c-3.604-.246-11.631-.245-15.23 0-3.897.266-4.356 2.62-4.385 8.816.029 6.185.484 8.549 4.385 8.816 3.6.245 11.626.246 15.23 0 3.897-.266 4.356-2.62 4.385-8.816-.029-6.185-.484-8.549-4.385-8.816zm-10.615 12.816v-8l8 3.993-8 4.007z"/></symbol>
<symbol id="window_8" viewBox="0 0 24 24"><path d="M0 0v24h24v-24h-24zm22 6v7h-9v-7h9zm-11 0v7h-9v-7h9zm-9 16v-7h9v7h-9zm11 0v-7h9v7h-9z"/></symbol>
<symbol id="site_portfolio" viewBox="0 0 1000 1000"><path d="M 199.794 28.726 C 195.600 29.167, 187.131 36.043, 184.208 41.380 C 182.605 44.308, 182.484 72.378, 182.247 496.500 L 181.994 948.500 185.747 953.416 C 187.811 956.120, 191.687 959.833, 194.359 961.666 L 199.218 965 527.996 965 L 856.774 965 861.610 961.750 C 864.269 959.962, 868.143 956.250, 870.218 953.500 L 873.990 948.500 873.995 496.473 C 874 77.694, 873.878 44.263, 872.347 41.973 C 869.670 37.970, 865.771 33.942, 861.600 30.871 L 857.700 28 530.600 28.168 C 350.695 28.261, 201.832 28.512, 199.794 28.726 M 232 405 L 232 732 528 732 L 824 732 824 405 L 824 78 528 78 L 232 78 232 405 M 669.921 131.306 C 667.953 132.043, 665.435 133.289, 664.326 134.073 C 660.223 136.975, 590.365 208.673, 588.153 212.253 C 582.672 221.120, 584.679 233.623, 592.801 241.213 C 600.264 248.188, 611.425 249.934, 620.046 245.476 C 621.781 244.579, 629.793 237.467, 637.850 229.673 L 652.500 215.500 653.114 227.500 C 653.452 234.100, 653.729 313.975, 653.729 405 C 653.729 496.025, 653.452 575.900, 653.114 582.500 L 652.500 594.500 637.850 580.327 C 629.793 572.533, 621.755 565.407, 619.988 564.494 C 618.221 563.580, 614.412 562.588, 611.524 562.290 C 592.073 560.283, 578.064 582.403, 588.650 598.408 C 592.016 603.498, 659.026 671.484, 664.392 675.253 C 671.940 680.556, 680.770 681.198, 688.926 677.038 C 692.718 675.103, 749.842 618.321, 762.854 603.553 C 769.956 595.492, 771.383 591.977, 770.804 583.971 C 770.249 576.291, 766.183 569.626, 759.552 565.526 C 755.218 562.847, 753.787 562.502, 747.078 562.520 C 741.701 562.534, 738.527 563.065, 736.150 564.347 C 734.307 565.341, 726.207 572.533, 718.150 580.327 L 703.500 594.500 702.886 582.500 C 702.084 566.847, 702.084 243.153, 702.886 227.500 L 703.500 215.500 718.150 229.673 C 726.207 237.467, 734.219 244.579, 735.954 245.476 C 740.484 247.819, 748.180 248.490, 753.487 247.004 C 759.128 245.424, 766.675 238.925, 769.122 233.539 C 771.632 228.011, 771.544 219.756, 768.917 214.328 C 766.326 208.977, 694.529 135.377, 689.208 132.618 C 684.577 130.217, 674.634 129.540, 669.921 131.306 M 316.402 257.876 C 291.456 258.550, 292.891 258.222, 285.769 264.880 C 280.988 269.351, 278.551 276.356, 279.289 283.509 C 280.200 292.339, 284.319 298.536, 292 302.633 C 295.353 304.422, 299.910 304.500, 400.500 304.500 L 505.500 304.500 509.500 302.347 C 519.198 297.128, 523.812 286.340, 521.069 275.294 C 519.288 268.122, 515.579 263.430, 509.233 260.326 L 503.723 257.630 421.612 257.441 C 376.450 257.338, 329.106 257.533, 316.402 257.876 M 316.402 382.876 C 291.456 383.550, 292.891 383.222, 285.769 389.880 C 280.988 394.351, 278.551 401.356, 279.289 408.509 C 280.200 417.339, 284.319 423.536, 292 427.633 C 295.353 429.422, 299.910 429.500, 400.500 429.500 L 505.500 429.500 509.500 427.347 C 519.198 422.128, 523.812 411.340, 521.069 400.294 C 519.288 393.122, 515.579 388.430, 509.233 385.326 L 503.723 382.630 421.612 382.441 C 376.450 382.338, 329.106 382.533, 316.402 382.876 M 316.402 507.876 C 291.456 508.550, 292.891 508.222, 285.769 514.880 C 280.988 519.351, 278.551 526.356, 279.289 533.509 C 280.200 542.339, 284.319 548.536, 292 552.633 C 295.353 554.422, 299.910 554.500, 400.500 554.500 L 505.500 554.500 509.500 552.347 C 519.198 547.128, 523.812 536.340, 521.069 525.294 C 519.288 518.122, 515.579 513.430, 509.233 510.326 L 503.723 507.630 421.612 507.441 C 376.450 507.338, 329.106 507.533, 316.402 507.876 M 232 847.500 L 232 915 528 915 L 824 915 824 847.500 L 824 780 528 780 L 232 780 232 847.500 M 311.924 826.939 C 293.809 827.486, 293.245 827.568, 289.229 830.228 C 286.964 831.728, 283.848 835.103, 282.305 837.728 C 279.905 841.811, 279.500 843.583, 279.500 850 C 279.500 856.417, 279.905 858.189, 282.305 862.272 C 283.848 864.897, 286.937 868.254, 289.170 869.731 C 293.006 872.270, 294.121 872.457, 309.365 873.126 C 330.406 874.050, 725.594 874.050, 746.635 873.126 C 761.879 872.457, 762.994 872.270, 766.830 869.731 C 769.063 868.254, 772.152 864.897, 773.695 862.272 C 776.095 858.189, 776.500 856.417, 776.500 850 C 776.500 843.583, 776.095 841.811, 773.695 837.728 C 772.152 835.103, 769.063 831.746, 766.830 830.269 C 762.994 827.730, 761.879 827.543, 746.635 826.874 C 727.851 826.049, 339.466 826.107, 311.924 826.939 M 1.762 999.707 C 3.006 999.946, 4.806 999.937, 5.762 999.687 C 6.718 999.437, 5.700 999.241, 3.500 999.252 C 1.300 999.263, 0.518 999.468, 1.762 999.707 M 12.750 999.737 C 15.638 999.939, 20.363 999.939, 23.250 999.737 C 26.138 999.535, 23.775 999.370, 18 999.370 C 12.225 999.370, 9.863 999.535, 12.750 999.737 " stroke="none" fill="black" fill-rule="evenodd"/></symbol>
<symbol id="case_2" viewBox="0 0 100 112"><path fill="rgb(0,0,0)" stroke="rgb(0,0,0)" stroke-width="1" opacity="0" d="M 9 9 L 92 9 L 92 67 L 9 67 L 9 9 Z M 26 13 L 22 18 Q 22 22 26 24 L 32 23 L 34 20 L 33 16 Q 32 12 26 13 Z M 59 22 L 49 36 L 45 34 Q 42 35 43 32 L 38 30 L 24 51 L 24 52 L 78 52 L 59 22 Z M 13 59 L 14 63 L 27 63 L 27 59 L 13 59 Z M 34 59 L 35 63 L 47 63 L 47 59 L 34 59 Z M 54 59 L 55 63 L 68 63 L 68 59 L 54 59 Z M 74 59 L 75 63 L 88 63 L 88 59 L 74 59 Z "></path><path fill="rgb(0,0,0)" stroke="rgb(0,0,0)" stroke-width="1" opacity="0" d="M 0 76 L 100 76 L 100 112 L 93 112 L 93 97 L 78 97 L 78 112 L 70 112 L 70 97 L 55 97 L 55 112 L 46 112 L 46 97 L 31 97 L 31 112 L 23 112 L 23 97 L 8 97 L 8 112 L 0 112 L 0 76 Z M 18 84 L 18 90 L 19 90 L 82 90 L 82 85 L 82 84 L 18 84 Z "></path><path fill="rgb(0,0,0)" stroke="rgb(0,0,0)" stroke-width="1" opacity="0.8235294117647058" d="M 37.5 30 L 36.5 32 L 37.5 30 Z "></path><path fill="rgb(0,0,0)" stroke="rgb(0,0,0)" stroke-width="1" opacity="0.8235294117647058" d="M 49.5 35 L 48.5 37 L 49.5 35 Z "></path><path fill="rgb(0,0,0)" stroke="rgb(0,0,0)" stroke-width="1" opacity="0.8235294117647058" d="M 27.5 45 L 26.5 47 L 27.5 45 Z "></path><path fill="rgb(0,0,0)" stroke="rgb(0,0,0)" stroke-width="1" opacity="0.8235294117647058" d="M 73.5 45 L 74.5 47 L 73.5 45 Z "></path><path fill="rgb(0,0,0)" stroke="rgb(0,0,0)" stroke-width="1" opacity="1" d="M 0 0 L 100 0 L 100 76 L 0 76 L 0 0 Z M 9 9 L 9 67 L 92 67 L 92 9 L 9 9 Z "></path><path fill="rgb(0,0,0)" stroke="rgb(0,0,0)" stroke-width="1" opacity="1" d="M 25.5 13 Q 31.8 11.8 33 15.5 L 34 18.5 L 31.5 23 L 26.5 24 L 23 21.5 L 22 18.5 L 25.5 13 Z "></path><path fill="rgb(0,0,0)" stroke="rgb(0,0,0)" stroke-width="1" opacity="1" d="M 58.5 22 L 78 51.5 L 23.5 52 L 25 49.5 L 38.5 30 L 48.5 37 L 58.5 22 Z "></path><path fill="rgb(0,0,0)" stroke="rgb(0,0,0)" stroke-width="1" opacity="1" d="M 13 59 L 26.5 59 L 27 63 L 13.5 63 L 13 59 Z "></path><path fill="rgb(0,0,0)" stroke="rgb(0,0,0)" stroke-width="1" opacity="1" d="M 34 59 L 46.5 59 L 47 63 L 34.5 63 L 34 59 Z "></path><path fill="rgb(0,0,0)" stroke="rgb(0,0,0)" stroke-width="1" opacity="1" d="M 54 59 L 67.5 59 L 68 63 L 54.5 63 L 54 59 Z "></path><path fill="rgb(0,0,0)" stroke="rgb(0,0,0)" stroke-width="1" opacity="1" d="M 74 59 L 87.5 59 L 88 63 L 74.5 63 L 74 59 Z "></path><path fill="rgb(0,0,0)" stroke="rgb(0,0,0)" stroke-width="1" opacity="1" d="M 18 84 L 81.5 84 L 82 84.5 L 82 90 L 18.5 90 L 18 89.5 L 18 84 Z "></path><path fill="rgb(0,0,0)" stroke="rgb(0,0,0)" stroke-width="1" opacity="1" d="M 8 97 L 23 97 L 23 112 L 8 112 L 8 97 Z "></path><path fill="rgb(0,0,0)" stroke="rgb(0,0,0)" stroke-width="1" opacity="1" d="M 31 97 L 46 97 L 46 112 L 31 112 L 31 97 Z "></path><path fill="rgb(0,0,0)" stroke="rgb(0,0,0)" stroke-width="1" opacity="1" d="M 55 97 L 70 97 L 70 112 L 55 112 L 55 97 Z "></path><path fill="rgb(0,0,0)" stroke="rgb(0,0,0)" stroke-width="1" opacity="1" d="M 78 97 L 93 97 L 93 112 L 78 112 L 78 97 Z "></path></symbol>

<symbol id="site_vertical-scroll" viewBox="0 0 800 588"><path fill="rgb(0,0,0)" stroke="rgb(0,0,0)" stroke-width="1" opacity="0.8196078431372549" d="M 680.5 160 L 708 186.5 L 681.5 161 L 654.5 187 L 680.5 160 Z "></path><path fill="rgb(0,0,0)" stroke="rgb(0,0,0)" stroke-width="1" opacity="0.8196078431372549" d="M 638.5 201 L 634.5 206 L 638.5 201 Z "></path><path fill="rgb(0,0,0)" stroke="rgb(0,0,0)" stroke-width="1" opacity="0.8196078431372549" d="M 724.5 202 L 727.5 206 L 724.5 202 Z "></path><path fill="rgb(0,0,0)" stroke="rgb(0,0,0)" stroke-width="1" opacity="0.8196078431372549" d="M 633.5 383 L 636.5 387 L 633.5 383 Z "></path><path fill="rgb(0,0,0)" stroke="rgb(0,0,0)" stroke-width="1" opacity="0.8196078431372549" d="M 726.5 383 L 723.5 387 L 726.5 383 Z "></path><path fill="rgb(0,0,0)" stroke="rgb(0,0,0)" stroke-width="1" opacity="0.8196078431372549" d="M 652.5 401 L 680.5 428 L 707 402.5 L 679.5 429 L 652.5 401 Z "></path><path fill="rgb(0,0,0)" stroke="rgb(0,0,0)" stroke-width="1" opacity="0" d="M 0 0 L 799.5 0 L 800 0.5 L 800 76 L 362 76 L 362 513 L 799.5 513 L 800 513.5 L 800 588 L 0.5 588 L 0 587.5 L 0 466 L 310.5 466 L 311 465.5 L 311 422 L 0.5 422 L 0 421.5 L 0 369 L 310.5 369 L 311 368.5 L 311 325 L 0.5 325 L 0 324.5 L 0 269 L 310.5 269 L 311 268.5 L 311 225 L 0.5 225 L 0 224.5 L 0 171 L 310.5 171 L 311 170.5 L 311 127 L 0 127 L 0 0 Z "></path><path fill="rgb(0,0,0)" stroke="rgb(0,0,0)" stroke-width="1" opacity="0" d="M 412 126 L 750 126 L 750 463 L 412 463 L 412 126 Z M 681 160 L 639 201 L 635 206 L 664 206 L 664 207 L 664 383 L 633 384 L 680 429 L 724 387 L 727 383 L 698 383 L 697 383 L 697 206 L 728 206 L 681 160 Z M 442 210 L 442 243 L 443 243 L 595 243 L 595 211 L 595 210 L 442 210 Z M 442 278 L 442 311 L 443 311 L 595 311 L 595 279 L 595 278 L 442 278 Z M 442 346 L 442 379 L 443 379 L 595 379 L 595 347 L 595 346 L 442 346 Z "></path><path fill="rgb(0,0,0)" stroke="rgb(0,0,0)" stroke-width="1" opacity="1" d="M 362 76 L 800 76 L 800 513 L 362 513 L 362 76 Z M 412 126 L 412 463 L 750 463 L 750 126 L 412 126 Z "></path><path fill="rgb(0,0,0)" stroke="rgb(0,0,0)" stroke-width="1" opacity="1" d="M 0 127 L 310.5 127 L 311 127.5 L 311 171 L 0.5 171 L 0 170.5 L 0 127 Z "></path><path fill="rgb(0,0,0)" stroke="rgb(0,0,0)" stroke-width="1" opacity="1" d="M 680.5 161 L 727 205.5 L 697 206 L 697 382.5 L 697.5 383 L 725.5 383 L 707.5 402 L 679.5 428 L 634 383.5 L 664 383 L 664 206.5 L 663.5 206 L 635.5 206 L 653.5 187 L 680.5 161 Z "></path><path fill="rgb(0,0,0)" stroke="rgb(0,0,0)" stroke-width="1" opacity="1" d="M 442 210 L 594.5 210 L 595 210.5 L 595 243 L 442.5 243 L 442 242.5 L 442 210 Z "></path><path fill="rgb(0,0,0)" stroke="rgb(0,0,0)" stroke-width="1" opacity="1" d="M 0 225 L 310.5 225 L 311 225.5 L 311 269 L 0.5 269 L 0 268.5 L 0 225 Z "></path><path fill="rgb(0,0,0)" stroke="rgb(0,0,0)" stroke-width="1" opacity="1" d="M 442 278 L 594.5 278 L 595 278.5 L 595 311 L 442.5 311 L 442 310.5 L 442 278 Z "></path><path fill="rgb(0,0,0)" stroke="rgb(0,0,0)" stroke-width="1" opacity="1" d="M 0 325 L 310.5 325 L 311 325.5 L 311 369 L 0.5 369 L 0 368.5 L 0 325 Z "></path><path fill="rgb(0,0,0)" stroke="rgb(0,0,0)" stroke-width="1" opacity="1" d="M 442 346 L 594.5 346 L 595 346.5 L 595 379 L 442.5 379 L 442 378.5 L 442 346 Z "></path><path fill="rgb(0,0,0)" stroke="rgb(0,0,0)" stroke-width="1" opacity="1" d="M 0 422 L 310.5 422 L 311 422.5 L 311 466 L 0.5 466 L 0 465.5 L 0 422 Z "></path></symbol>
</svg>