<?xml version="1.0"?>
<svg xmlns="http://www.w3.org/2000/svg" height="512px" viewBox="0 0 512 512" width="512px"><g><path d="m340.128906 146.515625c-8.625-11.199219-24.695312-13.289063-35.898437-4.664063l-90.503907 69.652344c-15.324218-25.621094-24.257812-54.554687-26.035156-84.355468-8.121094-81.207032-15.691406-127.148438-76.757812-127.148438h-102.398438c-4.714844 0-8.535156 3.820312-8.535156 8.535156v494.929688c0 4.714844 3.820312 8.535156 8.535156 8.535156h341.332032c4.167968 0 7.722656-3.007812 8.414062-7.117188 2.460938-16.433593 3.839844-33.007812 4.125-49.621093l9.035156 11.738281c4.125 5.398438 10.242188 8.921875 16.980469 9.78125 1.113281.144531 2.234375.214844 3.355469.21875 5.636718 0 11.113281-1.875 15.570312-5.324219l94.667969-72.867187c11.191406-8.632813 13.277344-24.695313 4.667969-35.902344zm2.3125 348.417969h-24.574218c3.742187-16.828125 5.886718-33.96875 6.398437-51.199219 0-4.714844-3.820313-8.535156-8.53125-8.535156-4.714844 0-8.535156 3.820312-8.535156 8.535156-.621094 17.242187-2.898438 34.386719-6.792969 51.199219h-283.339844v-477.867188h93.867188c42.550781 0 50.980468 23.816406 59.773437 111.792969 4.058594 40.257813 13.8125 70.023437 31.234375 95.683594-3.902344 8.570312-2.769531 18.589843 2.945313 26.074219l140.289062 182.253906c.699219 20.726562-.214843 41.476562-2.734375 62.0625zm149.15625-109.640625-94.660156 72.863281c-3.738281 2.871094-9.09375 2.171875-11.96875-1.5625l-166.554688-216.394531c-2.875-3.734375-2.179687-9.089844 1.550782-11.964844l94.671875-72.867187c3.738281-2.867188 9.09375-2.167969 11.96875 1.566406l166.5625 216.390625c2.863281 3.738281 2.164062 9.09375-1.566407 11.96875zm0 0" data-original="#000000" class="active-path" data-old_color="#000000" fill="#2196F3"/><path d="m368.777344 253.683594c-5.75-7.464844-16.464844-8.855469-23.933594-3.109375l-10.410156-13.515625c-5.519532-7.175782-13.664063-11.863282-22.644532-13.03125-8.976562-1.167969-18.050781 1.277344-25.226562 6.800781l-6.761719 5.207031c-2.476562 1.839844-3.765625 4.871094-3.375 7.929688.394531 3.0625 2.40625 5.671875 5.261719 6.828125 2.859375 1.15625 6.121094.683593 8.53125-1.242188l6.757812-5.207031c3.589844-2.753906 8.125-3.976562 12.613282-3.398438 4.492187.574219 8.566406 2.921876 11.316406 6.519532l10.414062 13.523437c-3.589843 2.757813-5.933593 6.832031-6.515624 11.324219-.585938 4.488281.636718 9.023438 3.398437 12.613281l67.671875 87.898438c8.628906 11.1875 24.683594 13.28125 35.894531 4.683593l.007813-.007812c11.179687-8.640625 13.265625-24.699219 4.660156-35.90625zm52.582031 110.292968c-3.734375 2.871094-9.09375 2.175782-11.96875-1.558593l-67.660156-87.902344 13.523437-10.414063 67.65625 87.898438c2.878906 3.738281 2.183594 9.097656-1.550781 11.976562zm0 0" data-original="#000000" class="active-path" data-old_color="#000000" fill="#2196F3"/><path d="m149.808594 123.441406c-.363282-16.210937-2.003906-32.367187-4.910156-48.316406-9.96875-49.875-83.117188-41.339844-86.222657-40.925781-3.054687.34375-5.691406 2.300781-6.898437 5.128906-1.207032 2.828125-.800782 6.085937 1.066406 8.53125s4.902344 3.695313 7.949219 3.273437c.625-.074218 60.476562-7.148437 67.375 27.34375 2.71875 15.101563 4.253906 30.394532 4.589843 45.738282 1.0625 23.167968 2.066407 45.042968 13.210938 67.332031 1.363281 2.726563 4.078125 4.519531 7.121094 4.703125 3.042968.183594 5.953125-1.273438 7.632812-3.816406 1.679688-2.546875 1.875-5.792969.511719-8.519532-9.527344-19.050781-10.410156-38.25-11.425781-60.472656zm0 0" data-original="#000000" class="active-path" data-old_color="#000000" fill="#2196F3"/></g> </svg>
