<?xml version="1.0"?>
<svg xmlns="http://www.w3.org/2000/svg" xmlns:xlink="http://www.w3.org/1999/xlink" version="1.1" id="Capa_1" x="0px" y="0px" viewBox="0 0 470 470" style="enable-background:new 0 0 470 470;" xml:space="preserve" width="512px" height="512px" class=""><g><g>
	<path d="M417.52,0H52.48C23.543,0,0,23.542,0,52.48V417.52C0,446.458,23.543,470,52.48,470H417.52   c28.938,0,52.48-23.542,52.48-52.48V52.48C470,23.542,446.457,0,417.52,0z M455,417.52c0,20.667-16.813,37.48-37.48,37.48H52.48   C31.813,455,15,438.187,15,417.52V52.48C15,31.813,31.813,15,52.48,15H417.52C438.187,15,455,31.813,455,52.48V417.52z" data-original="#000000" class="active-path" data-old_color="#000000" fill="#2196F3"/>
	<path d="M400.5,62h-331c-4.143,0-7.5,3.358-7.5,7.5v331c0,4.142,3.357,7.5,7.5,7.5h40c4.143,0,7.5-3.358,7.5-7.5   s-3.357-7.5-7.5-7.5H77V77h316v12.5c0,4.142,3.357,7.5,7.5,7.5s7.5-3.358,7.5-7.5v-20C408,65.358,404.643,62,400.5,62z" data-original="#000000" class="active-path" data-old_color="#000000" fill="#2196F3"/>
	<path d="M400.5,112c-4.143,0-7.5,3.358-7.5,7.5V393H139.5c-4.143,0-7.5,3.358-7.5,7.5s3.357,7.5,7.5,7.5h261   c4.143,0,7.5-3.358,7.5-7.5v-281C408,115.358,404.643,112,400.5,112z" data-original="#000000" class="active-path" data-old_color="#000000" fill="#2196F3"/>
	<path d="M235,375c77.196,0,140-62.804,140-140S312.196,95,235,95S95,157.804,95,235S157.804,375,235,375z M227.5,110.231V132.5   c0,4.142,3.357,7.5,7.5,7.5s7.5-3.358,7.5-7.5v-22.269C307.946,114.124,360,168.593,360,235s-52.054,120.876-117.5,124.769V337.5   c0-4.142-3.357-7.5-7.5-7.5s-7.5,3.358-7.5,7.5v22.269C162.054,355.876,110,301.407,110,235S162.054,114.124,227.5,110.231z" data-original="#000000" class="active-path" data-old_color="#000000" fill="#2196F3"/>
	<path d="M174.038,257.5c12.406,0,22.5-10.093,22.5-22.5s-10.094-22.5-22.5-22.5s-22.5,10.093-22.5,22.5   S161.632,257.5,174.038,257.5z M174.038,227.5c4.136,0,7.5,3.364,7.5,7.5s-3.364,7.5-7.5,7.5s-7.5-3.364-7.5-7.5   S169.902,227.5,174.038,227.5z" data-original="#000000" class="active-path" data-old_color="#000000" fill="#2196F3"/>
	<path d="M295.962,257.5c12.406,0,22.5-10.093,22.5-22.5s-10.094-22.5-22.5-22.5s-22.5,10.093-22.5,22.5   S283.556,257.5,295.962,257.5z M295.962,227.5c4.136,0,7.5,3.364,7.5,7.5s-3.364,7.5-7.5,7.5s-7.5-3.364-7.5-7.5   S291.826,227.5,295.962,227.5z" data-original="#000000" class="active-path" data-old_color="#000000" fill="#2196F3"/>
</g></g> </svg>
