<?xml version="1.0"?>
<svg xmlns="http://www.w3.org/2000/svg" xmlns:xlink="http://www.w3.org/1999/xlink" version="1.1" id="Layer_1" x="0px" y="0px" viewBox="0 0 512 512" style="enable-background:new 0 0 512 512;" xml:space="preserve" width="512px" height="512px"><g><g>
	<g>
		<path d="M457.128,0H147.302c-5.073,0-9.186,4.113-9.186,9.186c0,5.073,4.113,9.186,9.186,9.186h309.826    c20.126,0,36.5,16.375,36.5,36.5v402.254c0,20.126-16.373,36.5-36.5,36.5h-57.512c-5.073,0-9.186,4.113-9.186,9.186    c0,5.073,4.113,9.186,9.186,9.186h57.512c30.257,0,54.872-24.615,54.872-54.872V54.872C512,24.615,487.385,0,457.128,0z" data-original="#000000" class="active-path" data-old_color="#000000" fill="#2196F3"/>
	</g>
</g><g>
	<g>
		<path d="M362.871,493.628H54.873c-20.126,0-36.501-16.373-36.501-36.5V54.872c0-20.125,16.375-36.5,36.501-36.5h55.684    c5.073,0,9.186-4.113,9.186-9.186c0-5.073-4.113-9.186-9.186-9.186H54.873C24.617,0,0,24.615,0,54.872v402.254    C0,487.383,24.617,512,54.873,512h307.998c5.073,0,9.186-4.113,9.186-9.186C372.058,497.741,367.945,493.628,362.871,493.628z" data-original="#000000" class="active-path" data-old_color="#000000" fill="#2196F3"/>
	</g>
</g><g>
	<g>
		<path d="M377.82,210.542H134.178c-5.073,0-9.186,4.113-9.186,9.186v72.543c0,5.073,4.113,9.186,9.186,9.186H377.82    c5.073,0,9.186-4.113,9.186-9.186v-72.543C387.007,214.655,382.894,210.542,377.82,210.542z M368.634,283.085h-225.27v-54.17    h225.27V283.085z" data-original="#000000" class="active-path" data-old_color="#000000" fill="#2196F3"/>
	</g>
</g></g> </svg>
