<svg xmlns="http://www.w3.org/2000/svg" width="24" height="24" viewBox="0 0 24 24">
<symbol id="poehali" viewBox="0 0 24 24"><path d="M5 8.5c0-.828.672-1.5 1.5-1.5s1.5.672 1.5 1.5c0 .829-.672 1.5-1.5 1.5s-1.5-.671-1.5-1.5zm9 .5l-2.519 4-2.481-1.96-4 5.96h14l-5-8zm8-4v14h-20v-14h20zm2-2h-24v18h24v-18z"/></symbol>
<symbol id="tiktok-color" viewBox="0 0 512 512"><title>tik-tok</title><g fill="#f00044"><path d="m182.1 265.4c-40.6 0-73.4 32.8-72.8 73 .4 25.8 14.6 48.2 35.5 60.7-7.1-10.9-11.3-23.8-11.5-37.7-.6-40.2 32.2-73 72.8-73 8 0 15.7 1.3 22.9 3.6v-80.5c-7.5-1.1-15.2-1.7-22.9-1.7-.4 0-.7 0-1.1 0v59.2c-7.2-2.3-14.9-3.6-22.9-3.6z"/><path d="m357.6 24h-.6-20.8c6 30.1 22.9 56.3 46.5 74.1-15.5-20.5-24.9-46.1-25.1-74.1z"/><path d="m480 146.5c-7.9 0-15.5-.8-23-2.2v57.7c-27.2 0-53.6-5.3-78.4-15.9-16-6.8-30.9-15.5-44.6-26l.4 177.9c-.2 40-16 77.5-44.6 105.8-23.3 23-52.8 37.7-84.8 42.4-7.5 1.1-15.2 1.7-22.9 1.7-34.2 0-66.8-11.1-93.3-31.6 3 3.6 6.2 7.1 9.7 10.5 28.8 28.4 67 44.1 107.7 44.1 7.7 0 15.4-.6 22.9-1.7 32-4.7 61.5-19.4 84.8-42.4 28.6-28.3 44.4-65.8 44.6-105.8l-1.5-177.9c13.6 10.5 28.5 19.3 44.6 26 24.9 10.5 51.3 15.9 78.4 15.9"/></g><path d="m98.2 254.1c28.5-28.3 66.4-44 106.8-44.3v-21.3c-7.5-1.1-15.2-1.7-22.9-1.7-40.8 0-79.1 15.7-107.9 44.3-28.3 28.1-44.5 66.5-44.4 106.4 0 40.2 15.9 77.9 44.6 106.4 4.6 4.5 9.3 8.7 14.3 12.5-22.6-26.9-34.9-60.5-35-95.9.1-39.9 16.2-78.3 44.5-106.4z" fill="#08fff9"/><path d="m457 144.3v-21.4h-.2c-27.8 0-53.4-9.2-74-24.8 17.9 23.6 44.1 40.4 74.2 46.2z" fill="#08fff9"/><path d="m202 432.2c9.5.5 18.6-.8 27-3.5 29-9.5 49.9-36.5 49.9-68.3l.1-119v-217.4h57.2c-1.5-7.5-2.3-15.1-2.4-23h-78.8v217.3l-.1 119c0 31.8-20.9 58.8-49.9 68.3-8.4 2.8-17.5 4.1-27 3.5-12.1-.7-23.4-4.3-33.2-10.1 12.3 19 33.3 31.9 57.2 33.2z" fill="#08fff9"/><path d="m205 486.2c32-4.7 61.5-19.4 84.8-42.4 28.6-28.3 44.4-65.8 44.6-105.8l-.4-177.9c13.6 10.5 28.5 19.3 44.6 26 24.9 10.5 51.3 15.9 78.4 15.9v-57.7c-30.1-5.8-56.3-22.6-74.2-46.2-23.6-17.8-40.6-44-46.5-74.1h-57.3v217.3l-.1 119c0 31.8-20.9 58.8-49.9 68.3-8.4 2.8-17.5 4.1-27 3.5-24-1.3-44.9-14.2-57.2-33.1-20.9-12.4-35.1-34.9-35.5-60.7-.6-40.2 32.2-73 72.8-73 8 0 15.7 1.3 22.9 3.6v-59.2c-40.4.3-78.3 16-106.8 44.3-28.3 28.1-44.5 66.5-44.4 106.3 0 35.4 12.3 69 35 95.9 26.6 20.5 59.1 31.6 93.3 31.6 7.7.1 15.4-.5 22.9-1.6z"/></symbol><symbol id="youtube-color" viewBox="0 -77 512.00213 512"><title>youtube</title><path d="m501.453125 56.09375c-5.902344-21.933594-23.195313-39.222656-45.125-45.128906-40.066406-10.964844-200.332031-10.964844-200.332031-10.964844s-160.261719 0-200.328125 10.546875c-21.507813 5.902344-39.222657 23.617187-45.125 45.546875-10.542969 40.0625-10.542969 123.148438-10.542969 123.148438s0 83.503906 10.542969 123.148437c5.90625 21.929687 23.195312 39.222656 45.128906 45.128906 40.484375 10.964844 200.328125 10.964844 200.328125 10.964844s160.261719 0 200.328125-10.546875c21.933594-5.902344 39.222656-23.195312 45.128906-45.125 10.542969-40.066406 10.542969-123.148438 10.542969-123.148438s.421875-83.507812-10.546875-123.570312zm0 0" fill="#f00"/><path d="m204.96875 256 133.269531-76.757812-133.269531-76.757813zm0 0" fill="#fff"/></symbol><symbol id="vk-color" viewBox="0 0 512 512"><title>vk</title><path style="fill:#436EAB;" d="M440.649,295.361c16.984,16.582,34.909,32.182,50.142,50.436 c6.729,8.112,13.099,16.482,17.973,25.896c6.906,13.382,0.651,28.108-11.348,28.907l-74.59-0.034 c-19.238,1.596-34.585-6.148-47.489-19.302c-10.327-10.519-19.891-21.714-29.821-32.588c-4.071-4.444-8.332-8.626-13.422-11.932 c-10.182-6.609-19.021-4.586-24.84,6.034c-5.926,10.802-7.271,22.762-7.853,34.8c-0.799,17.564-6.108,22.182-23.751,22.986 c-37.705,1.778-73.489-3.926-106.732-22.947c-29.308-16.768-52.034-40.441-71.816-67.24 C58.589,258.194,29.094,200.852,2.586,141.904c-5.967-13.281-1.603-20.41,13.051-20.663c24.333-0.473,48.663-0.439,73.025-0.034 c9.89,0.145,16.437,5.817,20.256,15.16c13.165,32.371,29.274,63.169,49.494,91.716c5.385,7.6,10.876,15.201,18.694,20.55 c8.65,5.923,15.236,3.96,19.305-5.676c2.582-6.11,3.713-12.691,4.295-19.234c1.928-22.513,2.182-44.988-1.199-67.422 c-2.076-14.001-9.962-23.065-23.933-25.714c-7.129-1.351-6.068-4.004-2.616-8.073c5.995-7.018,11.634-11.387,22.875-11.387h84.298 c13.271,2.619,16.218,8.581,18.035,21.934l0.072,93.637c-0.145,5.169,2.582,20.51,11.893,23.931 c7.452,2.436,12.364-3.526,16.836-8.251c20.183-21.421,34.588-46.737,47.457-72.951c5.711-11.527,10.622-23.497,15.381-35.458 c3.526-8.875,9.059-13.242,19.056-13.049l81.132,0.072c2.406,0,4.84,0.035,7.17,0.434c13.671,2.33,17.418,8.211,13.195,21.561 c-6.653,20.945-19.598,38.4-32.255,55.935c-13.53,18.721-28.001,36.802-41.418,55.634 C424.357,271.756,425.336,280.424,440.649,295.361L440.649,295.361z"/></symbol><symbol id="facebook-color" viewBox="0 0 408.788 408.788"><title>facebook</title><path style="fill:#475993;" d="M353.701,0H55.087C24.665,0,0.002,24.662,0.002,55.085v298.616c0,30.423,24.662,55.085,55.085,55.085 h147.275l0.251-146.078h-37.951c-4.932,0-8.935-3.988-8.954-8.92l-0.182-47.087c-0.019-4.959,3.996-8.989,8.955-8.989h37.882 v-45.498c0-52.8,32.247-81.55,79.348-81.55h38.65c4.945,0,8.955,4.009,8.955,8.955v39.704c0,4.944-4.007,8.952-8.95,8.955 l-23.719,0.011c-25.615,0-30.575,12.172-30.575,30.035v39.389h56.285c5.363,0,9.524,4.683,8.892,10.009l-5.581,47.087 c-0.534,4.506-4.355,7.901-8.892,7.901h-50.453l-0.251,146.078h87.631c30.422,0,55.084-24.662,55.084-55.084V55.085 C408.786,24.662,384.124,0,353.701,0z"/></symbol>
<symbol id="instagram-color" viewBox="0 0 24 24"><title>instagram</title><linearGradient id="SVGID_1_" gradientTransform="matrix(0 -1.982 -1.844 0 -132.522 -51.077)" gradientUnits="userSpaceOnUse" x1="-37.106" x2="-26.555" y1="-72.705" y2="-84.047"><stop offset="0" stop-color="#fd5"/><stop offset=".5" stop-color="#ff543e"/><stop offset="1" stop-color="#c837ab"/></linearGradient><path d="m1.5 1.633c-1.886 1.959-1.5 4.04-1.5 10.362 0 5.25-.916 10.513 3.878 11.752 1.497.385 14.761.385 16.256-.002 1.996-.515 3.62-2.134 3.842-4.957.031-.394.031-13.185-.001-13.587-.236-3.007-2.087-4.74-4.526-5.091-.559-.081-.671-.105-3.539-.11-10.173.005-12.403-.448-14.41 1.633z" fill="#ff543e"/><path d="m11.998 3.139c-3.631 0-7.079-.323-8.396 3.057-.544 1.396-.465 3.209-.465 5.805 0 2.278-.073 4.419.465 5.804 1.314 3.382 4.79 3.058 8.394 3.058 3.477 0 7.062.362 8.395-3.058.545-1.41.465-3.196.465-5.804 0-3.462.191-5.697-1.488-7.375-1.7-1.7-3.999-1.487-7.374-1.487zm-.794 1.597c7.574-.012 8.538-.854 8.006 10.843-.189 4.137-3.339 3.683-7.211 3.683-7.06 0-7.263-.202-7.263-7.265 0-7.145.56-7.257 6.468-7.263zm5.524 1.471c-.587 0-1.063.476-1.063 1.063s.476 1.063 1.063 1.063 1.063-.476 1.063-1.063-.476-1.063-1.063-1.063zm-4.73 1.243c-2.513 0-4.55 2.038-4.55 4.551s2.037 4.55 4.55 4.55 4.549-2.037 4.549-4.55-2.036-4.551-4.549-4.551zm0 1.597c3.905 0 3.91 5.908 0 5.908-3.904 0-3.91-5.908 0-5.908z" fill="#fff"/></symbol>
<symbol id="web" viewBox="0 -55 511.99904 511" style="fill:#000080"><title>web</title><path d="m119.472656 119.984375c-6.976562 0-13.25-4.25-15.851562-10.730469l-18.28125-45.714844-18.28125 45.714844c-2.601563 6.480469-8.875 10.730469-15.851563 10.730469-6.976562 0-13.25-4.25-15.851562-10.730469l-34.128907-85.332031c-3.503906-8.75.753907-18.683594 9.507813-22.179687 8.796875-3.503907 18.691406.75 22.1875 9.515624l18.285156 45.714844 18.28125-45.71875c2.601563-6.480468 8.875-10.730468 15.851563-10.730468 6.976562 0 13.25 4.25 15.851562 10.730468l18.28125 45.71875 18.28125-45.71875c3.5-8.765625 13.382813-13.046875 22.191406-9.515625 8.75 3.5 13.007813 13.433594 9.507813 22.183594l-34.132813 85.328125c-2.597656 6.484375-8.871093 10.734375-15.847656 10.734375zm0 0"/><path d="m290.132812 119.984375c-6.976562 0-13.25-4.25-15.847656-10.730469l-18.285156-45.714844-18.28125 45.714844c-2.601562 6.480469-8.875 10.730469-15.847656 10.730469-6.976563 0-13.25-4.25-15.851563-10.730469l-34.132812-85.332031c-3.5-8.75.757812-18.683594 9.507812-22.179687 8.773438-3.503907 18.691407.75 22.191407 9.515624l18.28125 45.714844 18.28125-45.714844c2.601562-6.484374 8.875-10.734374 15.851562-10.734374s13.25 4.25 15.851562 10.734374l18.28125 45.714844 18.28125-45.714844c3.507813-8.765624 13.390626-13.050781 22.191407-9.515624 8.75 3.5 13.007812 13.433593 9.507812 22.179687l-34.132812 85.332031c-2.597657 6.480469-8.871094 10.730469-15.847657 10.730469zm0 0"/><path d="m460.796875 119.984375c-6.976563 0-13.25-4.25-15.851563-10.730469l-18.28125-45.714844-18.28125 45.714844c-2.601562 6.480469-8.875 10.730469-15.851562 10.730469s-13.25-4.25-15.851562-10.730469l-34.132813-85.332031c-3.5-8.75.757813-18.683594 9.507813-22.179687 8.785156-3.503907 18.683593.75 22.191406 9.515624l18.28125 45.714844 18.285156-45.714844c2.597656-6.484374 8.871094-10.734374 15.847656-10.734374 6.976563 0 13.25 4.25 15.851563 10.734374l18.28125 45.714844 18.28125-45.714844c3.511719-8.765624 13.410156-13.050781 22.191406-9.515624 8.75 3.5 13.007813 13.433593 9.507813 22.179687l-34.132813 85.332031c-2.59375 6.480469-8.871094 10.730469-15.84375 10.730469zm0 0"/><path d="m247.46875 350.378906c-1.890625 0-3.800781-.316406-5.648438-.964844-6.191406-2.167968-10.59375-7.699218-11.308593-14.21875l-17.066407-153.59375c-.707031-6.351562 2.183594-12.550781 7.5-16.082031 5.324219-3.535156 12.183594-3.800781 17.75-.71875l153.59375 85.332031c6.25 3.464844 9.675782 10.484376 8.566407 17.550782-1.097657 7.066406-6.488281 12.699218-13.507813 14.097656l-80.261718 16.050781-47.550782 47.546875c-3.25 3.25-7.617187 5-12.066406 5zm3.550781-139.679687 9.488281 85.433593 26.089844-26.085937c2.382813-2.382813 5.417969-4 8.71875-4.664063l39.804688-7.96875zm0 0"/><path d="m366.949219 401.578125c-5.515625 0-10.925781-2.667969-14.214844-7.597656l-68.265625-102.398438c-5.226562-7.851562-3.109375-18.433593 4.734375-23.667969 7.832031-5.214843 18.414063-3.117187 23.664063 4.734376l68.265624 102.398437c5.222657 7.851563 3.109376 18.433594-4.734374 23.664063-2.910157 1.933593-6.199219 2.867187-9.449219 2.867187zm0 0"/></symbol>
<symbol id="youtube" viewBox="0 0 24 24"><path d="M19.615 3.184c-3.604-.246-11.631-.245-15.23 0-3.897.266-4.356 2.62-4.385 8.816.029 6.185.484 8.549 4.385 8.816 3.6.245 11.626.246 15.23 0 3.897-.266 4.356-2.62 4.385-8.816-.029-6.185-.484-8.549-4.385-8.816zm-10.615 12.816v-8l8 3.993-8 4.007z"/></symbol>
<symbol id="instagram" viewBox="0 0 24 24"><path d="M12 2.163c3.204 0 3.584.012 4.85.07 3.252.148 4.771 1.691 4.919 4.919.058 1.265.069 1.645.069 4.849 0 3.205-.012 3.584-.069 4.849-.149 3.225-1.664 4.771-4.919 4.919-1.266.058-1.644.07-4.85.07-3.204 0-3.584-.012-4.849-.07-3.26-.149-4.771-1.699-4.919-4.92-.058-1.265-.07-1.644-.07-4.849 0-3.204.013-3.583.07-4.849.149-3.227 1.664-4.771 4.919-4.919 1.266-.057 1.645-.069 4.849-.069zm0-2.163c-3.259 0-3.667.014-4.947.072-4.358.2-6.78 2.618-6.98 6.98-.059 1.281-.073 1.689-.073 4.948 0 3.259.014 3.668.072 4.948.2 4.358 2.618 6.78 6.98 6.98 1.281.058 1.689.072 4.948.072 3.259 0 3.668-.014 4.948-.072 4.354-.2 6.782-2.618 6.979-6.98.059-1.28.073-1.689.073-4.948 0-3.259-.014-3.667-.072-4.947-.196-4.354-2.617-6.78-6.979-6.98-1.281-.059-1.69-.073-4.949-.073zm0 5.838c-3.403 0-6.162 2.759-6.162 6.162s2.759 6.163 6.162 6.163 6.162-2.759 6.162-6.163c0-3.403-2.759-6.162-6.162-6.162zm0 10.162c-2.209 0-4-1.79-4-4 0-2.209 1.791-4 4-4s4 1.791 4 4c0 2.21-1.791 4-4 4zm6.406-11.845c-.796 0-1.441.645-1.441 1.44s.645 1.44 1.441 1.44c.795 0 1.439-.645 1.439-1.44s-.644-1.44-1.439-1.44z"/></symbol>
<symbol id="tiktok" viewBox="0 0 512 512"><path d="m480.32 128.39c-29.22 0-56.18-9.68-77.83-26.01-24.83-18.72-42.67-46.18-48.97-77.83-1.56-7.82-2.4-15.89-2.48-24.16h-83.47v228.08l-.1 124.93c0 33.4-21.75 61.72-51.9 71.68-8.75 2.89-18.2 4.26-28.04 3.72-12.56-.69-24.33-4.48-34.56-10.6-21.77-13.02-36.53-36.64-36.93-63.66-.63-42.23 33.51-76.66 75.71-76.66 8.33 0 16.33 1.36 23.82 3.83v-62.34-22.41c-7.9-1.17-15.94-1.78-24.07-1.78-46.19 0-89.39 19.2-120.27 53.79-23.34 26.14-37.34 59.49-39.5 94.46-2.83 45.94 13.98 89.61 46.58 121.83 4.79 4.73 9.82 9.12 15.08 13.17 27.95 21.51 62.12 33.17 98.11 33.17 8.13 0 16.17-.6 24.07-1.77 33.62-4.98 64.64-20.37 89.12-44.57 30.08-29.73 46.7-69.2 46.88-111.21l-.43-186.56c14.35 11.07 30.04 20.23 46.88 27.34 26.19 11.05 53.96 16.65 82.54 16.64v-60.61-22.49c.02.02-.22.02-.24.02z"/></symbol>
<symbol id="vkontakte" viewBox="0 0 24 24"><path class="st0" d="M13.162 18.994c.609 0 .858-.406.851-.915-.031-1.917.714-2.949 2.059-1.604 1.488 1.488 1.796 2.519 3.603 2.519h3.2c.808 0 1.126-.26 1.126-.668 0-.863-1.421-2.386-2.625-3.504-1.686-1.565-1.765-1.602-.313-3.486 1.801-2.339 4.157-5.336 2.073-5.336h-3.981c-.772 0-.828.435-1.103 1.083-.995 2.347-2.886 5.387-3.604 4.922-.751-.485-.407-2.406-.35-5.261.015-.754.011-1.271-1.141-1.539-.629-.145-1.241-.205-1.809-.205-2.273 0-3.841.953-2.95 1.119 1.571.293 1.42 3.692 1.054 5.16-.638 2.556-3.036-2.024-4.035-4.305-.241-.548-.315-.974-1.175-.974h-3.255c-.492 0-.787.16-.787.516 0 .602 2.96 6.72 5.786 9.77 2.756 2.975 5.48 2.708 7.376 2.708z"/></symbol>
<symbol id="facebook" viewBox="0 0 24 24"><path d="M12 0c-6.627 0-12 5.373-12 12s5.373 12 12 12 12-5.373 12-12-5.373-12-12-12zm3 8h-1.35c-.538 0-.65.221-.65.778v1.222h2l-.209 2h-1.791v7h-3v-7h-2v-2h2v-2.308c0-1.769.931-2.692 3.029-2.692h1.971v3z"/></symbol>
<symbol id="site" viewBox="0 0 24 24"><path d="M19 11h-14v-2h14v2zm0 2h-14v2h14v-2zm0 4h-14v2h14v-2zm3-11v16h-20v-16h20zm2-6h-24v24h24v-24z"/></symbol>
<symbol id="map" viewBox="0 0 24 24"><path d="M12 0c-3.148 0-6 2.553-6 5.702 0 4.682 4.783 5.177 6 12.298 1.217-7.121 6-7.616 6-12.298 0-3.149-2.851-5.702-6-5.702zm0 8c-1.105 0-2-.895-2-2s.895-2 2-2 2 .895 2 2-.895 2-2 2zm12 16l-6.707-2.427-5.293 2.427-5.581-2.427-6.419 2.427 4-9 3.96-1.584c.38.516.741 1.08 1.061 1.729l-3.523 1.41-1.725 3.88 2.672-1.01 1.506-2.687-.635 3.044 4.189 1.789.495-2.021.465 2.024 4.15-1.89-.618-3.033 1.572 2.896 2.732.989-1.739-3.978-3.581-1.415c.319-.65.681-1.215 1.062-1.731l4.021 1.588 3.936 9z"/></symbol>
<symbol id="add" viewBox="0 0 24 24"><path d="M12 2c5.514 0 10 4.486 10 10s-4.486 10-10 10-10-4.486-10-10 4.486-10 10-10zm0-2c-6.627 0-12 5.373-12 12s5.373 12 12 12 12-5.373 12-12-5.373-12-12-12zm6 13h-5v5h-2v-5h-5v-2h5v-5h2v5h5v2z"/></symbol>
<symbol id="arrow_right_1" viewBox="0 0 24 24"><path d="M21 12l-18 12v-24z"/></symbol>
<symbol id="basket" viewBox="0 0 24 24"><path d="M24 3l-.743 2h-1.929l-3.474 12h-13.239l-4.615-11h16.812l-.564 2h-13.24l2.937 7h10.428l3.432-12h4.195zm-15.5 15c-.828 0-1.5.672-1.5 1.5 0 .829.672 1.5 1.5 1.5s1.5-.671 1.5-1.5c0-.828-.672-1.5-1.5-1.5zm6.9-7-1.9 7c-.828 0-1.5.671-1.5 1.5s.672 1.5 1.5 1.5 1.5-.671 1.5-1.5c0-.828-.672-1.5-1.5-1.5z"/></symbol>
<symbol id="bot" viewBox="0 0 24 24"><path d="M3.848 19h-.848c-.796 0-1.559-.316-2.121-.879-.563-.562-.879-1.325-.879-2.121v-3c0-7.175 5.377-13 12-13s12 5.825 12 13v3c0 .796-.316 1.559-.879 2.121-.562.563-1.325.879-2.121.879h-.848c-2.69 4.633-6.904 5-8.152 5-1.248 0-5.462-.367-8.152-5zm16.152-5.876c-.601.236-1.269-.18-1.269-.797 0-.304-.022-.61-.053-.915-1.761-.254-3.618-1.926-3.699-3.723-1.315 2.005-4.525 4.17-7.044 4.17 1.086-.699 1.839-2.773 1.903-3.508-.581 1.092-2.898 3.136-4.551 3.487l-.018.489c0 .619-.669 1.032-1.269.797v3.771c.287.256.632.464 1.041.594.225.072.412.224.521.424 2.206 4.046 5.426 4.087 6.438 4.087.929 0 3.719-.035 5.877-3.169-1.071.433-2.265.604-3.759.653-.37.6-1.18 1.016-2.118 1.016-1.288 0-2.333-.784-2.333-1.75s1.045-1.75 2.333-1.75c.933 0 1.738.411 2.112 1.005 1.9-.026 4.336-.334 5.888-2.645v-2.236zm-11-.624c.686 0 1.243.672 1.243 1.5s-.557 1.5-1.243 1.5-1.243-.672-1.243-1.5.557-1.5 1.243-1.5zm6 0c.686 0 1.243.672 1.243 1.5s-.557 1.5-1.243 1.5-1.243-.672-1.243-1.5.557-1.5 1.243-1.5zm5.478-1.5h1.357c-.856-5.118-4.937-9-9.835-9-4.898 0-8.979 3.882-9.835 9h1.357c.52-4.023 3.411-7.722 8.478-7.722s7.958 3.699 8.478 7.722z"/></symbol>
<symbol id="calendar" viewBox="0 0 24 24"><path d="M17 3v-2c0-.552.447-1 1-1s1 .448 1 1v2c0 .552-.447 1-1 1s-1-.448-1-1zm-12 1c.553 0 1-.448 1-1v-2c0-.552-.447-1-1-1-.553 0-1 .448-1 1v2c0 .552.447 1 1 1zm13 13v-3h-1v4h3v-1h-2zm-5 .5c0 2.481 2.019 4.5 4.5 4.5s4.5-2.019 4.5-4.5-2.019-4.5-4.5-4.5-4.5 2.019-4.5 4.5zm11 0c0 3.59-2.91 6.5-6.5 6.5s-6.5-2.91-6.5-6.5 2.91-6.5 6.5-6.5 6.5 2.91 6.5 6.5zm-14.237 3.5h-7.763v-13h19v1.763c.727.33 1.399.757 2 1.268v-9.031h-3v1c0 1.316-1.278 2.339-2.658 1.894-.831-.268-1.342-1.111-1.342-1.984v-.91h-9v1c0 1.316-1.278 2.339-2.658 1.894-.831-.268-1.342-1.111-1.342-1.984v-.91h-3v21h11.031c-.511-.601-.938-1.273-1.268-2z"/></symbol>
<symbol id="chars" viewBox="0 0 24 24"><path d="M2 23h-2v-2h2v2zm0-12h-2v2h2v-2zm0 5h-2v2h2v-2zm0-15h-2v2h2v-2zm2 0v2h20v-2h-20zm-2 5h-2v2h2v-2zm2 7h20v-2h-20v2zm0 10h20v-2h-20v2zm0-15h20v-2h-20v2zm0 10h20v-2h-20v2z"/></symbol>
<symbol id="coupon" viewBox="0 0 24 24"><path d="M22 6v12h-20v-12h20zm2-2h-24v16h24v-16zm-13 11v1h1v-1h-.333v-.333h-.334v.333h-.333zm.667.333v.333h-.334v-.333h.334zm-7.667.667h2.667v-2.667h-2.667v2.667zm.333-2.333h2v2h-2v-2zm6.667 1v-.333h.333v.333h-.333zm-6.333-.667h1.333v1.333h-1.333v-1.333zm2.666-1v.667h-.333v-.667h.333zm.667-2.667h.333v.333h-.333v-.333zm.333-.333h.334v.333h-.334v-.333zm.334.667v-.333h.333v.333h-.333zm0-.667h.333v-2h-1v.333h-1v.333h1v.334h.667v1zm-.334-1.333v-.334h.334v.333h-.334zm-2.333 1.333h-1.333v-1.333h1.333v1.333zm2 0h-.333v-.667h-.667v-.333h1v.333h.333v.333h-.333v.334zm-1.333-2h-2.667v2.667h2.667v-2.667zm-.334 2.333h-2v-2h2v2zm1 0h-.333v-.333h.667v.667h-.334v-.334zm-1 1v.333h-.333v-.333h.333zm5 2h.667v1h-.333v-.333h-.667v.333h-.333v-.333h-.334v-.333h.334v-.333h.333v.333h.333v-.334zm-1.333.667h-.333v.333h-.334v-.333h-.333v-.333h.333v-.333h-.666v-.334h-.334v.333h-.333v.333h-.667v.334h-.333v2h1.667v-.333h-.334v-.667h-.333v.667h-.667v-.333h.334v-.334h-.334v-.333h1v-.333h.667v.666h-.333v.333h.333v.667h.333v-.667h.334v.333h.333v-.333h.333v-.667h.334v-.333h-.667v-.333zm-.333 1h-.334v-.333h.334v.333zm2-2v-.667h.333v.667h-.333zm-3 1.667v.333h-.334v-.333h.334zm1.666 1v-.333h.334v.666h-.667v-.333h.333zm-1-7.667v2.667h2.667v-2.667h-2.667zm2.334 2.333h-2v-2h2v2zm-.334-.333h-1.333v-1.333h1.333v1.333zm.334 1.333h.333v.667h-.333v.333h-.667v-1.333h.333v.667h.334v-.334zm-1.334 2v-1h.334v1h-.334zm-4.333-2.333v.333h-.667v.333h.334v.334h-1v-.333h.333v-.333h-.667v.333h-.333v-.667h2zm-.333 1.333v-.333h.333v1h-.333v-.333h-.334v.333h-.333v-.333h-.333v.333h-.667v-.333h.333v-.333h1.334zm-1.334-.333v.333h-.333v-.333h.333zm6.334-.667h-.334v-.333h.334v.333zm-4.334 1.334h.334v.333h-.334v-.333zm5 .666h-.333v-.333h.333v.333zm-1.666.334v-.333h.333v.333h-.333zm-.334-.334h.334v-1h.666v-.333h.334v-.333h-.334v-.333h-.666v-.334h-.334v.333h-.333v-.333h-.333v.333h-.334v-.333h-.333v.333h-.333v.333h-.334v-.333h.334v-.333h-1.334v.333h.667v.333h-.667v.334h.334v.666h.333v-.333h.667v.667h.333v-1.333h.333v.667h1v.333h-.666v.333h.666v.333zm.334-1.666h.333v.333h-.333v-.333zm-.667.333h-.333v-.333h.333v.333zm11-4h-6v1h6v-1zm0 2h-6v1h6v-1zm0 2h-6v1h6v-1zm-3 2h-3v1h3v-1z"/></symbol>
<symbol id="cursor24" viewBox="0 0 24 24"><path d="M24 12l-6-5v4h-5v-5h4l-5-6-5 6h4v5h-5v-4l-6 5 6 5v-4h5v5h-4l5 6 5-6h-4v-5h5v4z"/></symbol>
<symbol id="delete" viewBox="0 0 24 24"><path d="M24 20.188l-8.315-8.209 8.2-8.282-3.697-3.697-8.212 8.318-8.31-8.203-3.666 3.666 8.321 8.24-8.206 8.313 3.666 3.666 8.237-8.318 8.285 8.203z"/></symbol>
<symbol id="down" viewBox="0 0 24 24"><path d="M12 21l-12-18h24z"/></symbol>
<symbol id="edit" viewBox="0 0 24 24"><path d="M8.424 12.282l4.402 4.399-5.826 1.319 1.424-5.718zm15.576-6.748l-9.689 9.804-4.536-4.536 9.689-9.802 4.536 4.534zm-6 8.916v6.55h-16v-12h6.743l1.978-2h-10.721v16h20v-10.573l-2 2.023z"/></symbol>
<symbol id="email" viewBox="0 0 24 24"><path d="M0 3v18h24v-18h-24zm6.623 7.929l-4.623 5.712v-9.458l4.623 3.746zm-4.141-5.929h19.035l-9.517 7.713-9.518-7.713zm5.694 7.188l3.824 3.099 3.83-3.104 5.612 6.817h-18.779l5.513-6.812zm9.208-1.264l4.616-3.741v9.348l-4.616-5.607z"/></symbol>
<symbol id="exit" viewBox="0 0 24 24"><svg width="24" height="24" xmlns="http://www.w3.org/2000/svg" fill-rule="evenodd" clip-rule="evenodd"><path d="M11 21h8v-2l1-1v4h-9v2l-10-3v-18l10-3v2h9v5l-1-1v-3h-8v18zm10.053-9l-3.293-3.293.707-.707 4.5 4.5-4.5 4.5-.707-.707 3.293-3.293h-9.053v-1h9.053z"/></svg></symbol>
<symbol id="eye" viewBox="0 0 24 24"><path d="M12.015 7c4.751 0 8.063 3.012 9.504 4.636-1.401 1.837-4.713 5.364-9.504 5.364-4.42 0-7.93-3.536-9.478-5.407 1.493-1.647 4.817-4.593 9.478-4.593zm0-2c-7.569 0-12.015 6.551-12.015 6.551s4.835 7.449 12.015 7.449c7.733 0 11.985-7.449 11.985-7.449s-4.291-6.551-11.985-6.551zm-.015 3c-2.209 0-4 1.792-4 4 0 2.209 1.791 4 4 4s4-1.791 4-4c0-2.208-1.791-4-4-4z"/></symbol>
<symbol id="files" viewBox="0 0 24 24"><path d="M6 22v-16h16v7.543c0 4.107-6 2.457-6 2.457s1.518 6-2.638 6h-7.362zm18-7.614v-10.386h-20v20h10.189c3.163 0 9.811-7.223 9.811-9.614zm-10 1.614h-5v-1h5v1zm5-4h-10v1h10v-1zm0-3h-10v1h10v-1zm3-6h-19v19h-1v-20h20v1zm-2-2h-19v19h-1v-20h20v1z"/></symbol>
<symbol id="filter" viewBox="0 0 24 24"><path d="M1 0l9 15.094v5.906l4 3v-8.906l9-15.094h-22zm18.479 2l-2.981 5h-8.996l-2.981-5h14.958z"/></symbol>
<symbol id="folder_add" viewBox="0 0 24 24"><path d="M19.5 13c-2.483 0-4.5 2.015-4.5 4.5s2.017 4.5 4.5 4.5 4.5-2.015 4.5-4.5-2.017-4.5-4.5-4.5zm2.5 5h-2v2h-1v-2h-2v-1h2v-2h1v2h2v1zm-7.18 4h-14.82v-20h7c1.695 1.942 2.371 3 4 3h13v7.82c-.576-.554-1.252-1.006-2-1.319v-4.501h-11c-2.34 0-3.537-1.388-4.916-3h-4.084v16h11.502c.312.749.765 1.424 1.318 2z"/></symbol>
<symbol id="form" viewBox="0 0 24 24"><path d="M2 16v-8h12v-2h-14v12h14v-2h-12zm18-10v2h2v8h-2v2h4v-12h-4zm-2 12.301c0 1.699 1.359 1.621 2 1.699v1h-6v-1c.641-.078 2 0 2-1.699v-12.602c0-1.699-1.359-1.621-2-1.699v-1h6v1c-.641.078-2 0-2 1.699v12.602zm-11-6.301c0 .552-.447 1-1 1s-1-.448-1-1 .447-1 1-1 1 .448 1 1zm4 0c0 .552-.447 1-1 1s-1-.448-1-1 .447-1 1-1 1 .448 1 1z"/></symbol>
<symbol id="help" viewBox="0 0 24 24"><path d="M14.601 21.5c0 1.38-1.116 2.5-2.499 2.5-1.378 0-2.499-1.12-2.499-2.5s1.121-2.5 2.499-2.5c1.383 0 2.499 1.119 2.499 2.5zm-2.42-21.5c-4.029 0-7.06 2.693-7.06 8h3.955c0-2.304.906-4.189 3.024-4.189 1.247 0 2.57.828 2.684 2.411.123 1.666-.767 2.511-1.892 3.582-2.924 2.78-2.816 4.049-2.816 7.196h3.943c0-1.452-.157-2.508 1.838-4.659 1.331-1.436 2.986-3.222 3.021-5.943.047-3.963-2.751-6.398-6.697-6.398z"/></symbol>
<symbol id="help_2" viewBox="0 0 24 24"><path d="M12 2c5.514 0 10 4.486 10 10s-4.486 10-10 10-10-4.486-10-10 4.486-10 10-10zm0-2c-6.627 0-12 5.373-12 12s5.373 12 12 12 12-5.373 12-12-5.373-12-12-12zm1.25 17c0 .69-.559 1.25-1.25 1.25-.689 0-1.25-.56-1.25-1.25s.561-1.25 1.25-1.25c.691 0 1.25.56 1.25 1.25zm1.393-9.998c-.608-.616-1.515-.955-2.551-.955-2.18 0-3.59 1.55-3.59 3.95h2.011c0-1.486.829-2.013 1.538-2.013.634 0 1.307.421 1.364 1.226.062.847-.39 1.277-.962 1.821-1.412 1.343-1.438 1.993-1.432 3.468h2.005c-.013-.664.03-1.203.935-2.178.677-.73 1.519-1.638 1.536-3.022.011-.924-.284-1.719-.854-2.297z"/></symbol>
<symbol id="gear" viewBox="0 0 24 24"><path d="M24 14.187v-4.374c-2.148-.766-2.726-.802-3.027-1.529-.303-.729.083-1.169 1.059-3.223l-3.093-3.093c-2.026.963-2.488 1.364-3.224 1.059-.727-.302-.768-.889-1.527-3.027h-4.375c-.764 2.144-.8 2.725-1.529 3.027-.752.313-1.203-.1-3.223-1.059l-3.093 3.093c.977 2.055 1.362 2.493 1.059 3.224-.302.727-.881.764-3.027 1.528v4.375c2.139.76 2.725.8 3.027 1.528.304.734-.081 1.167-1.059 3.223l3.093 3.093c1.999-.95 2.47-1.373 3.223-1.059.728.302.764.88 1.529 3.027h4.374c.758-2.131.799-2.723 1.537-3.031.745-.308 1.186.099 3.215 1.062l3.093-3.093c-.975-2.05-1.362-2.492-1.059-3.223.3-.726.88-.763 3.027-1.528zm-4.875.764c-.577 1.394-.068 2.458.488 3.578l-1.084 1.084c-1.093-.543-2.161-1.076-3.573-.49-1.396.581-1.79 1.693-2.188 2.877h-1.534c-.398-1.185-.791-2.297-2.183-2.875-1.419-.588-2.507-.045-3.579.488l-1.083-1.084c.557-1.118 1.066-2.18.487-3.58-.579-1.391-1.691-1.784-2.876-2.182v-1.533c1.185-.398 2.297-.791 2.875-2.184.578-1.394.068-2.459-.488-3.579l1.084-1.084c1.082.538 2.162 1.077 3.58.488 1.392-.577 1.785-1.69 2.183-2.875h1.534c.398 1.185.792 2.297 2.184 2.875 1.419.588 2.506.045 3.579-.488l1.084 1.084c-.556 1.121-1.065 2.187-.488 3.58.577 1.391 1.689 1.784 2.875 2.183v1.534c-1.188.398-2.302.791-2.877 2.183zm-7.125-5.951c1.654 0 3 1.346 3 3s-1.346 3-3 3-3-1.346-3-3 1.346-3 3-3zm0-2c-2.762 0-5 2.238-5 5s2.238 5 5 5 5-2.238 5-5-2.238-5-5-5z"/></symbol>
<symbol id="gears" viewBox="0 0 24 24"><path d="M17 10.645v-2.29c-1.17-.417-1.907-.533-2.28-1.431-.373-.9.07-1.512.6-2.625l-1.618-1.619c-1.105.525-1.723.974-2.626.6-.9-.373-1.017-1.116-1.431-2.28h-2.29c-.412 1.158-.53 1.907-1.431 2.28h-.001c-.9.374-1.51-.07-2.625-.6l-1.617 1.619c.527 1.11.973 1.724.6 2.625-.375.901-1.123 1.019-2.281 1.431v2.289c1.155.412 1.907.531 2.28 1.431.376.908-.081 1.534-.6 2.625l1.618 1.619c1.107-.525 1.724-.974 2.625-.6h.001c.9.373 1.018 1.118 1.431 2.28h2.289c.412-1.158.53-1.905 1.437-2.282h.001c.894-.372 1.501.071 2.619.602l1.618-1.619c-.525-1.107-.974-1.723-.601-2.625.374-.899 1.126-1.019 2.282-1.43zm-8.5 1.689c-1.564 0-2.833-1.269-2.833-2.834s1.269-2.834 2.833-2.834 2.833 1.269 2.833 2.834-1.269 2.834-2.833 2.834zm15.5 4.205v-1.077c-.55-.196-.897-.251-1.073-.673-.176-.424.033-.711.282-1.236l-.762-.762c-.52.248-.811.458-1.235.283-.424-.175-.479-.525-.674-1.073h-1.076c-.194.545-.25.897-.674 1.073-.424.176-.711-.033-1.235-.283l-.762.762c.248.523.458.812.282 1.236-.176.424-.528.479-1.073.673v1.077c.544.193.897.25 1.073.673.177.427-.038.722-.282 1.236l.762.762c.521-.248.812-.458 1.235-.283.424.175.479.526.674 1.073h1.076c.194-.545.25-.897.676-1.074h.001c.421-.175.706.034 1.232.284l.762-.762c-.247-.521-.458-.812-.282-1.235s.529-.481 1.073-.674zm-4 .794c-.736 0-1.333-.597-1.333-1.333s.597-1.333 1.333-1.333 1.333.597 1.333 1.333-.597 1.333-1.333 1.333zm-4 3.071v-.808c-.412-.147-.673-.188-.805-.505s.024-.533.212-.927l-.572-.571c-.389.186-.607.344-.926.212s-.359-.394-.506-.805h-.807c-.146.409-.188.673-.506.805-.317.132-.533-.024-.926-.212l-.572.571c.187.393.344.609.212.927-.132.318-.396.359-.805.505v.808c.408.145.673.188.805.505.133.32-.028.542-.212.927l.572.571c.39-.186.608-.344.926-.212.318.132.359.395.506.805h.807c.146-.409.188-.673.507-.805h.001c.315-.131.529.025.924.213l.572-.571c-.186-.391-.344-.609-.212-.927s.397-.361.805-.506zm-3 .596c-.552 0-1-.447-1-1s.448-1 1-1 1 .447 1 1-.448 1-1 1z"/></symbol>
<symbol id="info" viewBox="0 0 24 24"><path d="M12 2c5.514 0 10 4.486 10 10s-4.486 10-10 10-10-4.486-10-10 4.486-10 10-10zm0-2c-6.627 0-12 5.373-12 12s5.373 12 12 12 12-5.373 12-12-5.373-12-12-12zm1 18h-2v-8h2v8zm-1-12.25c.69 0 1.25.56 1.25 1.25s-.56 1.25-1.25 1.25-1.25-.56-1.25-1.25.56-1.25 1.25-1.25z"/></symbol>
<symbol id="home" viewBox="0 0 24 24"><path d="M20 7.093v-5.093h-3v2.093l3 3zm4 5.907l-12-12-12 12h3v10h7v-5h4v5h7v-10h3zm-5 8h-3v-5h-8v5h-3v-10.26l7-6.912 7 6.99v10.182z"/></symbol>
<symbol id="menu_1" viewBox="0 0 24 24"><path d="M24 6h-24v-4h24v4zm0 4h-24v4h24v-4zm0 8h-24v4h24v-4z"/></symbol>
<symbol id="menu_3" viewBox="0 0 24 24"><path d="M13 6h-13v-4h13v4zm0 4h-13v4h13v-4zm0 8h-13v4h13v-4zm3-8l4 5.075 4-5.075h-8z"/></symbol>
<symbol id="menu_4" viewBox="0 0 24 24"><path d="M12 18c1.657 0 3 1.343 3 3s-1.343 3-3 3-3-1.343-3-3 1.343-3 3-3zm0-9c1.657 0 3 1.343 3 3s-1.343 3-3 3-3-1.343-3-3 1.343-3 3-3zm0-9c1.657 0 3 1.343 3 3s-1.343 3-3 3-3-1.343-3-3 1.343-3 3-3z"/></symbol>
<symbol id="new" viewBox="0 0 24 24"><path d="M14.139 2.63l3.068-1.441.786 3.297 3.39.032-.722 3.312 3.038 1.5-2.087 2.671 2.087 2.67-3.038 1.499.722 3.312-3.39.033-.786 3.296-3.068-1.441-2.139 2.63-2.138-2.63-3.068 1.441-.787-3.296-3.389-.033.722-3.312-3.039-1.499 2.088-2.67-2.088-2.671 3.039-1.5-.722-3.312 3.389-.032.787-3.297 3.068 1.441 2.138-2.63 2.139 2.63zm-3.742 2.342l-2.303-1.081-.59 2.474-2.542.024.542 2.483-2.279 1.125 1.566 2.004-1.566 2.002 2.279 1.124-.542 2.485 2.542.025.59 2.472 2.303-1.081 1.603 1.972 1.604-1.972 2.301 1.081.59-2.472 2.543-.025-.542-2.485 2.279-1.124-1.565-2.002 1.565-2.004-2.279-1.125.542-2.483-2.543-.024-.59-2.474-2.301 1.081-1.604-1.972-1.603 1.972zm1.603 9.528c.69 0 1.25.56 1.25 1.25s-.56 1.25-1.25 1.25-1.25-.56-1.25-1.25.56-1.25 1.25-1.25zm1-.947h-2v-6.553h2v6.553z"/></symbol>
<symbol id="paper_add" viewBox="0 0 24 24"><path d="M18.5 15c-2.483 0-4.5 2.015-4.5 4.5s2.017 4.5 4.5 4.5 4.5-2.015 4.5-4.5-2.017-4.5-4.5-4.5zm2.5 5h-2v2h-1v-2h-2v-1h2v-2h1v2h2v1zm-7.18 4h-12.82v-24h10.189c3.163 0 9.811 7.223 9.811 9.614v3.887c-.624-.261-1.297-.422-2-.476v-2.569c0-4.106-6-2.456-6-2.456s1.518-6-2.638-6h-7.362v20h9.501c.313.749.765 1.424 1.319 2z"/></symbol>
<symbol id="pages" viewBox="0 0 24 24"><path d="M7 22v-16h14v7.543c0 4.107-6 2.457-6 2.457s1.518 6-2.638 6h-5.362zm16-7.614v-10.386h-18v20h8.189c3.163 0 9.811-7.223 9.811-9.614zm-10 1.614h-4v-1h4v1zm6-4h-10v1h10v-1zm0-3h-10v1h10v-1zm1-7h-17v19h-2v-21h19v2z"/></symbol>
<symbol id="price" viewBox="0 0 24 24"><path d="M2 9.453v-9.453h9.352l10.648 10.625-3.794 3.794 1.849 4.733-12.34 4.848-5.715-14.547zm1.761 1.748l4.519 11.503 10.48-4.118-1.326-3.395-4.809 4.809-8.864-8.799zm-.761-10.201v8.036l9.622 9.552 7.963-7.962-9.647-9.626h-7.938zm12.25 8.293c-.415-.415-.865-.617-1.378-.617-.578 0-1.227.241-2.171.803-.682.411-1.118.585-1.456.585-.361 0-1.083-.409-.961-1.219.052-.345.25-.696.572-1.019.652-.652 1.544-.848 2.276-.107l.744-.744c-.476-.475-1.096-.792-1.761-.792-.566 0-1.125.228-1.663.677l-.626-.626-.698.699.653.652c-.569.826-.842 2.021.076 2.937 1.011 1.011 2.188.541 3.413-.232.6-.379 1.083-.563 1.475-.563.589.001 1.18.498 1.078 1.258-.052.386-.26.764-.621 1.122-.451.451-.904.679-1.347.679-.418 0-.747-.192-1.049-.462l-.739.739c.463.458 1.082.753 1.735.753.544 0 1.087-.201 1.612-.597l.54.538.697-.697-.52-.521c.743-.896 1.157-2.209.119-3.247zm-9.25-7.292c1.104 0 2 .896 2 2s-.896 2-2 2-2-.896-2-2 .896-2 2-2zm0 1c.552 0 1 .448 1 1s-.448 1-1 1-1-.448-1-1 .448-1 1-1z"/></symbol>
<symbol id="question" viewBox="0 0 24 24"><path d="M12 3c5.514 0 10 3.592 10 8.007 0 4.917-5.145 7.961-9.91 7.961-1.937 0-3.383-.397-4.394-.644-1 .613-1.595 1.037-4.272 1.82.535-1.373.723-2.748.602-4.265-.838-1-2.025-2.4-2.025-4.872-.001-4.415 4.485-8.007 9.999-8.007zm0-2c-6.338 0-12 4.226-12 10.007 0 2.05.738 4.063 2.047 5.625.055 1.83-1.023 4.456-1.993 6.368 2.602-.47 6.301-1.508 7.978-2.536 1.418.345 2.775.503 4.059.503 7.084 0 11.91-4.837 11.91-9.961-.001-5.811-5.702-10.006-12.001-10.006zm1.024 13.975c0 .566-.458 1.025-1.024 1.025-.565 0-1.024-.459-1.024-1.025 0-.565.459-1.024 1.024-1.024.566 0 1.024.459 1.024 1.024zm1.141-8.192c-.498-.505-1.241-.783-2.09-.783-1.786 0-2.941 1.271-2.941 3.237h1.647c0-1.217.68-1.649 1.261-1.649.519 0 1.07.345 1.117 1.004.052.694-.319 1.046-.788 1.493-1.157 1.1-1.179 1.633-1.173 2.842h1.643c-.01-.544.025-.986.766-1.785.555-.598 1.245-1.342 1.259-2.477.008-.758-.233-1.409-.701-1.882z"/></symbol>
<symbol id="rub" viewBox="0 0 24 24"><path d="M21.646 2.763c-2.156-2.803-4.867-2.763-8.298-2.763h-9.348v10h-3v9h3v5h6v-5h7v-4.446c3.804-.724 6-3.531 6-7.264 0-1.683-.402-3.29-1.354-4.527zm-2.647 8.851c-1.497 1.041-2.976 1.386-6.393 1.386h-4.606v3h7v1h-7v5.04h-2v-5.04h-3v-1h3v-3h-3v-1h3v-10h7.348c3.326 0 5.158-.04 6.714 1.982.673.875 1.059 2.082 1.059 3.308-.001 1.785-.793 3.401-2.122 4.324zm-4.48-8.614h-6.519v9h6.816c3.312 0 5.1-2.369 5.1-4.673 0-3.096-2.277-4.327-5.397-4.327zm.297 7h-4.816v-5h4.519c1.804 0 3.397.554 3.397 2.327 0 1.368-1.064 2.673-3.1 2.673z"/></symbol>
<symbol id="section" viewBox="0 0 24 24"><path d="M6.083 4c1.38 1.612 2.578 3 4.917 3h11v13h-20v-16h4.083zm.917-2h-7v20h24v-17h-13c-1.629 0-2.305-1.058-4-3z"/></symbol>
<symbol id="seo" viewBox="0 0 24 24"><path d="M13 8h-8v-1h8v1zm0 2h-8v-1h8v1zm-3 2h-5v-1h5v1zm11.172 12l-7.387-7.387c-1.388.874-3.024 1.387-4.785 1.387-4.971 0-9-4.029-9-9s4.029-9 9-9 9 4.029 9 9c0 1.761-.514 3.398-1.387 4.785l7.387 7.387-2.828 2.828zm-12.172-8c3.859 0 7-3.14 7-7s-3.141-7-7-7-7 3.14-7 7 3.141 7 7 7z"/></symbol>
<symbol id="shop" viewBox="0 0 24 24"><path d="M24 3l-.743 2h-1.929l-3.474 12h-13.239l-4.615-11h16.812l-.564 2h-13.24l2.937 7h10.428l3.432-12h4.195zm-15.5 15c-.828 0-1.5.672-1.5 1.5 0 .829.672 1.5 1.5 1.5s1.5-.671 1.5-1.5c0-.828-.672-1.5-1.5-1.5zm6.9-7-1.9 7c-.828 0-1.5.671-1.5 1.5s.672 1.5 1.5 1.5 1.5-.671 1.5-1.5c0-.828-.672-1.5-1.5-1.5z"/></symbol>
<symbol id="star" viewBox="0 0 24 24"><path d="M12 .587l3.668 7.568 8.332 1.151-6.064 5.828 1.48 8.279-7.416-3.967-7.417 3.967 1.481-8.279-6.064-5.828 8.332-1.151z"/></symbol>
<symbol id="sticker" viewBox="0 0 24 24"><path d="M20.626 10l1.374-1.737-1.895-1.168.687-2.095-2.187-.46-.079-2.2-2.213.304-.84-2.04-1.977 1.031-1.496-1.635-1.497 1.634-1.977-1.03-.84 2.04-2.212-.305-.079 2.2-2.187.461.687 2.095-1.895 1.168 1.374 1.737-1.374 1.737 1.895 1.168-.687 2.095 2.187.46.079 2.2 2.213-.304.84 2.04 1.977-1.031 1.496 1.635 1.497-1.634 1.977 1.031.84-2.04 2.213.304.079-2.2 2.186-.461-.687-2.095 1.895-1.168-1.374-1.737zm-8.626 7c-3.866 0-7-3.134-7-7s3.134-7 7-7 7 3.134 7 7-3.134 7-7 7zm5.141 3.276l2.401 3.724 1.146-2h2.312l-2.655-4.103c-.917.969-1.999 1.775-3.204 2.379zm-13.486-2.379l-2.655 4.103h2.312l1.146 2 2.401-3.724c-1.205-.604-2.287-1.41-3.204-2.379zm8.345-12.897c2.757 0 5 2.243 5 5s-2.243 5-5 5-5-2.243-5-5 2.243-5 5-5zm0-1c-3.314 0-6 2.687-6 6s2.686 6 6 6 6-2.687 6-6-2.686-6-6-6z"/></symbol>
<symbol id="target" viewBox="0 0 24 24"><path d="M6 12c0 2.206 1.794 4 4 4 1.761 0 3.242-1.151 3.775-2.734l2.224-1.291.001.025c0 3.314-2.686 6-6 6s-6-2.686-6-6 2.686-6 6-6c1.084 0 2.098.292 2.975.794l-2.21 1.283c-.248-.048-.503-.077-.765-.077-2.206 0-4 1.794-4 4zm4-2c-1.105 0-2 .896-2 2s.895 2 2 2 2-.896 2-2l-.002-.015 3.36-1.95c.976-.565 2.704-.336 3.711.159l4.931-2.863-3.158-1.569.169-3.632-4.945 2.87c-.07 1.121-.734 2.736-1.705 3.301l-3.383 1.964c-.29-.163-.621-.265-.978-.265zm7.995 1.911l.005.089c0 4.411-3.589 8-8 8s-8-3.589-8-8 3.589-8 8-8c1.475 0 2.853.408 4.041 1.107.334-.586.428-1.544.146-2.18-1.275-.589-2.69-.927-4.187-.927-5.523 0-10 4.477-10 10s4.477 10 10 10c5.233 0 9.521-4.021 9.957-9.142-.301-.483-1.066-1.061-1.962-.947z"/></symbol>
<symbol id="task" viewBox="0 0 24 24"><path d="M22 2v22h-20v-22h3c1.23 0 2.181-1.084 3-2h8c.82.916 1.771 2 3 2h3zm-11 1c0 .552.448 1 1 1 .553 0 1-.448 1-1s-.447-1-1-1c-.552 0-1 .448-1 1zm9 1h-4l-2 2h-3.897l-2.103-2h-4v18h16v-18zm-13 9.729l.855-.791c1 .484 1.635.852 2.76 1.654 2.113-2.399 3.511-3.616 6.106-5.231l.279.64c-2.141 1.869-3.709 3.949-5.967 7.999-1.393-1.64-2.322-2.686-4.033-4.271z"/></symbol>
<symbol id="text" viewBox="0 0 24 24"><path d="M22 0h-20v6h1.999c0-1.174.397-3 2.001-3h4v16.874c0 1.174-.825 2.126-2 2.126h-1v2h9.999v-2h-.999c-1.174 0-2-.952-2-2.126v-16.874h4c1.649 0 2.02 1.826 2.02 3h1.98v-6z"/></symbol>
<symbol id="user_add" viewBox="0 0 24 24"><path d="M8.602 3.7c-1.154 1.937-.635 5.227 1.424 9.025.93 1.712.697 3.02.338 3.815-.982 2.178-3.675 2.799-6.525 3.456-1.964.454-1.839.87-1.839 4.004h-1.995l-.005-1.241c0-2.52.199-3.975 3.178-4.663 3.365-.777 6.688-1.473 5.09-4.418-4.733-8.729-1.35-13.678 3.732-13.678 3.321 0 5.97 2.117 5.97 6.167 0 3.555-1.949 6.833-2.383 7.833h-2.115c.392-1.536 2.499-4.366 2.499-7.842 0-5.153-5.867-4.985-7.369-2.458zm15.398 15.8c0 2.485-2.017 4.5-4.5 4.5s-4.5-2.015-4.5-4.5 2.017-4.5 4.5-4.5 4.5 2.015 4.5 4.5zm-2-.5h-2v-2h-1v2h-2v1h2v2h1v-2h2v-1z"/></symbol>
<symbol id="users" viewBox="0 0 24 24"><path d="M17.997 18h-11.995l-.002-.623c0-1.259.1-1.986 1.588-2.33 1.684-.389 3.344-.736 2.545-2.209-2.366-4.363-.674-6.838 1.866-6.838 2.491 0 4.226 2.383 1.866 6.839-.775 1.464.826 1.812 2.545 2.209 1.49.344 1.589 1.072 1.589 2.333l-.002.619zm4.811-2.214c-1.29-.298-2.49-.559-1.909-1.657 1.769-3.342.469-5.129-1.4-5.129-1.265 0-2.248.817-2.248 2.324 0 3.903 2.268 1.77 2.246 6.676h4.501l.002-.463c0-.946-.074-1.493-1.192-1.751zm-22.806 2.214h4.501c-.021-4.906 2.246-2.772 2.246-6.676 0-1.507-.983-2.324-2.248-2.324-1.869 0-3.169 1.787-1.399 5.129.581 1.099-.619 1.359-1.909 1.657-1.119.258-1.193.805-1.193 1.751l.002.463z"/></symbol>
<symbol id="users_2" viewBox="0 0 24 24"><path d="M17.997 18h-.998c0-1.552.06-1.775-.88-1.993-1.438-.332-2.797-.645-3.293-1.729-.18-.396-.301-1.048.155-1.907 1.021-1.929 1.277-3.583.702-4.538-.672-1.115-2.707-1.12-3.385.017-.576.968-.316 2.613.713 4.512.465.856.348 1.51.168 1.908-.49 1.089-1.836 1.4-3.262 1.728-.982.227-.92.435-.92 2.002h-.995l-.002-.623c0-1.259.1-1.985 1.588-2.329 1.682-.389 3.344-.736 2.545-2.209-2.366-4.365-.676-6.839 1.865-6.839 2.492 0 4.227 2.383 1.867 6.839-.775 1.464.824 1.812 2.545 2.209 1.49.344 1.589 1.072 1.589 2.333l-.002.619zm4.81-2.214c-1.289-.298-2.489-.559-1.908-1.657 1.77-3.342.47-5.129-1.4-5.129-1.265 0-2.248.817-2.248 2.325 0 1.269.574 2.175.904 2.925h1.048c-.17-.75-1.466-2.562-.766-3.736.412-.692 1.704-.693 2.114-.012.38.631.181 1.812-.534 3.161-.388.733-.28 1.301-.121 1.648.305.666.977.987 1.737 1.208 1.507.441 1.368.042 1.368 1.48h.997l.002-.463c0-.945-.074-1.492-1.193-1.75zm-22.805 2.214h.997c0-1.438-.139-1.039 1.368-1.48.761-.221 1.433-.542 1.737-1.208.159-.348.267-.915-.121-1.648-.715-1.349-.914-2.53-.534-3.161.41-.682 1.702-.681 2.114.012.7 1.175-.596 2.986-.766 3.736h1.048c.33-.75.904-1.656.904-2.925.001-1.509-.982-2.326-2.247-2.326-1.87 0-3.17 1.787-1.4 5.129.581 1.099-.619 1.359-1.908 1.657-1.12.258-1.194.805-1.194 1.751l.002.463z"/></symbol>
<symbol id="video" viewBox="0 0 24 24"><path d="M12 2c5.514 0 10 4.486 10 10s-4.486 10-10 10-10-4.486-10-10 4.486-10 10-10zm0-2c-6.627 0-12 5.373-12 12s5.373 12 12 12 12-5.373 12-12-5.373-12-12-12zm-3 17v-10l9 5.146-9 4.854z"/></symbol>
</svg>